<svg xmlns="http://www.w3.org/2000/svg" xmlns:xlink="http://www.w3.org/1999/xlink" width="1024" zoomAndPan="magnify" viewBox="0 0 768 767.999994" height="1024" preserveAspectRatio="xMidYMid meet" version="1.0"><defs><clipPath id="8a736674ea"><path d="M 31.449219 45.050781 L 709.019531 45.050781 L 709.019531 723 L 31.449219 723 Z M 31.449219 45.050781 " clip-rule="nonzero"/></clipPath><clipPath id="44e3ca9b82"><path d="M 93.699219 45.050781 L 646.769531 45.050781 C 681.148438 45.050781 709.019531 72.921875 709.019531 107.300781 L 709.019531 660.699219 C 709.019531 695.078125 681.148438 722.949219 646.769531 722.949219 L 93.699219 722.949219 C 59.320312 722.949219 31.449219 695.078125 31.449219 660.699219 L 31.449219 107.300781 C 31.449219 72.921875 59.320312 45.050781 93.699219 45.050781 Z M 93.699219 45.050781 " clip-rule="nonzero"/></clipPath><clipPath id="ad31caa23b"><path d="M 31.449219 397 L 358 397 L 358 722.632812 L 31.449219 722.632812 Z M 31.449219 397 " clip-rule="nonzero"/></clipPath><clipPath id="e0970a9e4e"><path d="M 383 397 L 708.699219 397 L 708.699219 722.632812 L 383 722.632812 Z M 383 397 " clip-rule="nonzero"/></clipPath><clipPath id="63e6972e16"><path d="M 383 45.382812 L 708.699219 45.382812 L 708.699219 371 L 383 371 Z M 383 45.382812 " clip-rule="nonzero"/></clipPath><clipPath id="db2b2339b1"><path d="M 31.449219 45.382812 L 358 45.382812 L 358 371 L 31.449219 371 Z M 31.449219 45.382812 " clip-rule="nonzero"/></clipPath></defs><g clip-path="url(#8a736674ea)"><g clip-path="url(#44e3ca9b82)"><path fill="#ffffff" d="M 31.449219 45.050781 L 709.019531 45.050781 L 709.019531 722.617188 L 31.449219 722.617188 Z M 31.449219 45.050781 " fill-opacity="1" fill-rule="nonzero"/></g></g><g clip-path="url(#ad31caa23b)"><path fill="#000000" d="M 230.457031 397.03125 L 31.449219 397.03125 L 31.449219 661.289062 C 31.453125 663.296875 31.550781 665.300781 31.746094 667.300781 C 31.945312 669.300781 32.238281 671.285156 32.632812 673.253906 C 33.023438 675.222656 33.511719 677.171875 34.097656 679.09375 C 34.679688 681.015625 35.355469 682.90625 36.125 684.761719 C 36.894531 686.617188 37.753906 688.429688 38.699219 690.203125 C 39.648438 691.972656 40.679688 693.695312 41.796875 695.363281 C 42.910156 697.035156 44.105469 698.644531 45.382812 700.199219 C 46.65625 701.75 48.003906 703.238281 49.421875 704.660156 C 50.84375 706.078125 52.332031 707.425781 53.882812 708.703125 C 55.4375 709.976562 57.046875 711.171875 58.71875 712.289062 C 60.386719 713.402344 62.109375 714.433594 63.882812 715.382812 C 65.652344 716.328125 67.464844 717.1875 69.320312 717.957031 C 71.179688 718.726562 73.066406 719.402344 74.988281 719.984375 C 76.910156 720.570312 78.859375 721.058594 80.828125 721.449219 C 82.796875 721.84375 84.78125 722.136719 86.78125 722.335938 C 88.78125 722.53125 90.785156 722.632812 92.792969 722.632812 L 357.050781 722.632812 L 357.050781 523.625 C 355.039062 523.433594 353.027344 523.203125 351.023438 522.925781 C 349.023438 522.648438 347.023438 522.332031 345.035156 521.96875 C 343.042969 521.605469 341.0625 521.199219 339.089844 520.753906 C 337.117188 520.304688 335.15625 519.8125 333.207031 519.28125 C 331.253906 518.75 329.316406 518.171875 327.390625 517.558594 C 325.464844 516.941406 323.550781 516.28125 321.652344 515.582031 C 319.753906 514.882812 317.875 514.144531 316.007812 513.363281 C 314.140625 512.582031 312.292969 511.761719 310.460938 510.898438 C 308.632812 510.039062 306.820312 509.140625 305.03125 508.199219 C 303.238281 507.261719 301.46875 506.285156 299.71875 505.269531 C 297.96875 504.253906 296.242188 503.199219 294.539062 502.109375 C 292.835938 501.019531 291.15625 499.894531 289.5 498.730469 C 287.847656 497.566406 286.21875 496.371094 284.613281 495.136719 C 283.011719 493.902344 281.433594 492.636719 279.886719 491.335938 C 278.339844 490.035156 276.820312 488.699219 275.328125 487.332031 C 273.835938 485.964844 272.375 484.566406 270.945312 483.136719 C 269.515625 481.707031 268.117188 480.246094 266.75 478.753906 C 265.382812 477.265625 264.050781 475.746094 262.746094 474.195312 C 261.445312 472.648438 260.179688 471.070312 258.945312 469.46875 C 257.710938 467.863281 256.515625 466.234375 255.351562 464.582031 C 254.1875 462.925781 253.0625 461.246094 251.972656 459.542969 C 250.882812 457.839844 249.828125 456.113281 248.8125 454.363281 C 247.796875 452.613281 246.820312 450.84375 245.882812 449.050781 C 244.941406 447.261719 244.042969 445.449219 243.183594 443.621094 C 242.320312 441.789062 241.5 439.941406 240.71875 438.074219 C 239.9375 436.210938 239.199219 434.328125 238.5 432.429688 C 237.800781 430.53125 237.140625 428.621094 236.527344 426.691406 C 235.910156 424.765625 235.332031 422.828125 234.800781 420.875 C 234.269531 418.925781 233.777344 416.964844 233.328125 414.992188 C 232.882812 413.019531 232.476562 411.039062 232.113281 409.046875 C 231.75 407.058594 231.433594 405.0625 231.15625 403.058594 C 230.878906 401.054688 230.648438 399.042969 230.457031 397.03125 Z M 209.230469 520.628906 C 215.871094 492.496094 247.390625 484.683594 252.339844 483.511719 C 252.46875 488.589844 252.726562 521.019531 227.332031 534.566406 C 208.054688 543.421875 205.582031 541.46875 209.230469 520.628906 Z M 153.226562 664.023438 C 142.535156 661.863281 132.636719 657.785156 123.53125 651.78125 C 124.964844 649.304688 126.394531 646.960938 128.089844 644.488281 C 126.179688 646.660156 124.136719 648.699219 121.96875 650.609375 C 75.339844 610.363281 103.734375 550.976562 120.40625 532.21875 C 135.511719 548.371094 161.300781 597.210938 133.949219 637.0625 C 136.984375 633.402344 140.371094 630.101562 144.109375 627.164062 C 181.746094 597.601562 230.847656 619.871094 238.402344 623.519531 C 233.324219 630.289062 200.242188 672.75 153.226562 664.023438 Z M 217.5625 570.640625 C 229.441406 571.5 240.773438 574.449219 251.558594 579.496094 C 247.519531 584.707031 221.730469 617.789062 185.132812 611.015625 C 167.683594 606.585938 161.171875 603.59375 164.6875 596.949219 C 163.515625 598.121094 162.210938 599.425781 160.910156 600.597656 C 124.703125 569.730469 146.710938 522.710938 159.605469 508.515625 C 171.457031 520.5 191.253906 558.789062 170.546875 589.527344 C 172.632812 587.441406 175.105469 585.097656 178.101562 582.363281 C 180.628906 580.394531 183.304688 578.65625 186.128906 577.144531 C 188.953125 575.632812 191.882812 574.375 194.921875 573.363281 C 197.964844 572.355469 201.066406 571.609375 204.234375 571.132812 C 207.398438 570.652344 210.585938 570.445312 213.785156 570.511719 C 212.484375 570.25 211.183594 570.121094 209.878906 569.859375 C 196.59375 566.601562 191.515625 564.128906 193.859375 559.050781 C 192.949219 560.089844 192.035156 560.871094 191.125 561.785156 C 163.125 538.210938 180.183594 501.222656 190.082031 490.542969 C 199.070312 499.53125 214.308594 529.222656 198.9375 552.667969 C 200.503906 551.234375 202.324219 549.542969 204.410156 547.71875 C 227.070312 529.875 256.636719 543.289062 261.324219 545.503906 C 260.066406 547.273438 258.71875 548.972656 257.277344 550.59375 C 255.835938 552.21875 254.308594 553.761719 252.703125 555.222656 C 251.09375 556.679688 249.414062 558.050781 247.65625 559.328125 C 245.902344 560.605469 244.082031 561.785156 242.199219 562.867188 C 240.316406 563.949219 238.378906 564.925781 236.390625 565.800781 C 234.402344 566.671875 232.375 567.433594 230.300781 568.089844 C 228.230469 568.742188 226.132812 569.28125 224 569.707031 C 221.871094 570.136719 219.726562 570.445312 217.5625 570.640625 Z M 217.5625 570.640625 " fill-opacity="1" fill-rule="nonzero"/></g><g clip-path="url(#e0970a9e4e)"><path fill="#000000" d="M 509.691406 397.03125 C 509.503906 399.042969 509.269531 401.054688 508.996094 403.058594 C 508.71875 405.0625 508.398438 407.058594 508.039062 409.046875 C 507.675781 411.039062 507.269531 413.019531 506.820312 414.992188 C 506.375 416.964844 505.882812 418.925781 505.351562 420.875 C 504.816406 422.828125 504.242188 424.765625 503.625 426.691406 C 503.007812 428.621094 502.351562 430.53125 501.652344 432.429688 C 500.953125 434.328125 500.210938 436.210938 499.429688 438.074219 C 498.652344 439.941406 497.828125 441.789062 496.96875 443.621094 C 496.109375 445.449219 495.207031 447.261719 494.269531 449.050781 C 493.332031 450.84375 492.351562 452.613281 491.335938 454.363281 C 490.320312 456.113281 489.269531 457.839844 488.179688 459.542969 C 487.089844 461.246094 485.960938 462.925781 484.800781 464.582031 C 483.636719 466.234375 482.4375 467.863281 481.207031 469.46875 C 479.972656 471.070312 478.703125 472.648438 477.402344 474.195312 C 476.101562 475.746094 474.769531 477.265625 473.402344 478.753906 C 472.035156 480.246094 470.636719 481.707031 469.203125 483.136719 C 467.773438 484.566406 466.3125 485.964844 464.824219 487.332031 C 463.332031 488.699219 461.8125 490.035156 460.265625 491.335938 C 458.714844 492.636719 457.140625 493.902344 455.539062 495.136719 C 453.933594 496.371094 452.304688 497.566406 450.648438 498.730469 C 448.996094 499.894531 447.316406 501.019531 445.613281 502.109375 C 443.90625 503.199219 442.179688 504.253906 440.433594 505.269531 C 438.683594 506.285156 436.914062 507.261719 435.121094 508.199219 C 433.328125 509.140625 431.519531 510.039062 429.6875 510.898438 C 427.859375 511.761719 426.007812 512.582031 424.144531 513.363281 C 422.277344 514.144531 420.394531 514.882812 418.5 515.582031 C 416.601562 516.28125 414.6875 516.941406 412.761719 517.558594 C 410.835938 518.171875 408.898438 518.75 406.945312 519.28125 C 404.996094 519.8125 403.03125 520.304688 401.058594 520.753906 C 399.085938 521.199219 397.105469 521.605469 395.117188 521.96875 C 393.125 522.332031 391.128906 522.648438 389.125 522.925781 C 387.121094 523.203125 385.113281 523.433594 383.097656 523.625 L 383.097656 722.632812 L 647.355469 722.632812 C 649.367188 722.632812 651.371094 722.53125 653.371094 722.335938 C 655.367188 722.136719 657.351562 721.84375 659.324219 721.449219 C 661.292969 721.058594 663.238281 720.570312 665.160156 719.984375 C 667.085938 719.402344 668.972656 718.726562 670.828125 717.957031 C 672.683594 717.1875 674.5 716.328125 676.269531 715.382812 C 678.042969 714.433594 679.761719 713.402344 681.433594 712.289062 C 683.101562 711.171875 684.714844 709.976562 686.269531 708.703125 C 687.820312 707.425781 689.308594 706.078125 690.726562 704.660156 C 692.148438 703.238281 693.496094 701.75 694.769531 700.199219 C 696.042969 698.644531 697.238281 697.035156 698.355469 695.363281 C 699.472656 693.695312 700.503906 691.972656 701.453125 690.203125 C 702.398438 688.429688 703.257812 686.617188 704.027344 684.761719 C 704.792969 682.90625 705.472656 681.015625 706.054688 679.09375 C 706.636719 677.171875 707.125 675.222656 707.519531 673.253906 C 707.910156 671.285156 708.207031 669.300781 708.402344 667.300781 C 708.601562 665.300781 708.699219 663.296875 708.699219 661.289062 L 708.699219 397.03125 Z M 665.722656 548.761719 L 633.8125 611.277344 L 633.8125 660.765625 L 525.972656 660.765625 L 525.972656 611.277344 L 494.066406 548.761719 C 493.507812 547.636719 492.984375 546.5 492.5 545.34375 C 492.011719 544.191406 491.5625 543.019531 491.152344 541.839844 C 490.738281 540.65625 490.363281 539.460938 490.027344 538.253906 C 489.691406 537.046875 489.394531 535.828125 489.132812 534.605469 C 488.875 533.378906 488.652344 532.144531 488.472656 530.90625 C 488.289062 529.667969 488.148438 528.421875 488.042969 527.171875 C 487.941406 525.925781 487.875 524.675781 487.851562 523.421875 C 487.828125 522.167969 487.84375 520.917969 487.898438 519.664062 C 487.953125 518.414062 488.046875 517.164062 488.183594 515.917969 C 488.316406 514.671875 488.488281 513.433594 488.699219 512.199219 C 488.914062 510.964844 489.164062 509.738281 489.453125 508.519531 C 489.742188 507.296875 490.070312 506.089844 490.4375 504.890625 C 490.804688 503.695312 491.207031 502.507812 491.648438 501.335938 C 492.089844 500.164062 492.566406 499.003906 493.082031 497.863281 C 493.597656 496.71875 494.144531 495.59375 494.730469 494.488281 C 495.316406 493.378906 495.9375 492.292969 496.589844 491.222656 C 497.246094 490.152344 497.929688 489.105469 498.652344 488.082031 C 499.371094 487.058594 500.125 486.054688 500.90625 485.078125 C 501.691406 484.101562 502.503906 483.148438 503.347656 482.222656 C 504.191406 481.296875 505.0625 480.398438 505.964844 479.527344 C 506.867188 478.65625 507.792969 477.8125 508.746094 477 C 509.699219 476.1875 510.679688 475.40625 511.679688 474.65625 C 512.683594 473.90625 513.710938 473.1875 514.757812 472.5 C 515.808594 471.816406 516.875 471.164062 517.964844 470.542969 C 519.054688 469.925781 520.164062 469.34375 521.289062 468.792969 C 522.417969 468.246094 523.558594 467.734375 524.71875 467.257812 C 525.878906 466.78125 527.050781 466.34375 528.238281 465.941406 C 529.425781 465.539062 530.621094 465.175781 531.832031 464.847656 C 533.042969 464.523438 534.261719 464.234375 535.488281 463.984375 C 536.714844 463.738281 537.949219 463.527344 539.191406 463.355469 C 540.433594 463.183594 541.679688 463.050781 542.929688 462.960938 C 544.175781 462.867188 545.429688 462.816406 546.679688 462.800781 L 613.105469 462.800781 C 614.355469 462.8125 615.609375 462.863281 616.859375 462.957031 C 618.109375 463.046875 619.355469 463.175781 620.597656 463.347656 C 621.839844 463.515625 623.074219 463.726562 624.304688 463.972656 C 625.53125 464.222656 626.75 464.507812 627.960938 464.832031 C 629.171875 465.160156 630.371094 465.523438 631.558594 465.921875 C 632.746094 466.324219 633.921875 466.761719 635.082031 467.238281 C 636.242188 467.714844 637.382812 468.222656 638.511719 468.773438 C 639.640625 469.320312 640.75 469.902344 641.839844 470.519531 C 642.929688 471.136719 644 471.789062 645.046875 472.476562 C 646.097656 473.160156 647.125 473.878906 648.128906 474.628906 C 649.132812 475.378906 650.113281 476.160156 651.066406 476.976562 C 652.019531 477.789062 652.949219 478.628906 653.851562 479.5 C 654.75 480.371094 655.625 481.269531 656.46875 482.195312 C 657.3125 483.125 658.125 484.074219 658.910156 485.054688 C 659.695312 486.03125 660.449219 487.03125 661.167969 488.058594 C 661.890625 489.085938 662.578125 490.132812 663.230469 491.199219 C 663.886719 492.269531 664.503906 493.359375 665.089844 494.46875 C 665.675781 495.574219 666.226562 496.699219 666.742188 497.84375 C 667.253906 498.988281 667.730469 500.144531 668.171875 501.320312 C 668.613281 502.492188 669.019531 503.679688 669.382812 504.878906 C 669.75 506.074219 670.078125 507.285156 670.367188 508.503906 C 670.65625 509.722656 670.90625 510.953125 671.117188 512.1875 C 671.332031 513.421875 671.503906 514.664062 671.636719 515.910156 C 671.769531 517.15625 671.863281 518.40625 671.917969 519.660156 C 671.972656 520.910156 671.984375 522.164062 671.960938 523.417969 C 671.9375 524.671875 671.871094 525.921875 671.765625 527.171875 C 671.664062 528.417969 671.519531 529.664062 671.335938 530.902344 C 671.152344 532.144531 670.929688 533.378906 670.671875 534.601562 C 670.410156 535.828125 670.109375 537.046875 669.773438 538.253906 C 669.433594 539.460938 669.058594 540.65625 668.644531 541.839844 C 668.230469 543.023438 667.78125 544.191406 667.292969 545.34375 C 666.804688 546.5 666.28125 547.636719 665.722656 548.761719 Z M 665.722656 548.761719 " fill-opacity="1" fill-rule="nonzero"/></g><g clip-path="url(#63e6972e16)"><path fill="#000000" d="M 647.355469 45.382812 L 383.097656 45.382812 L 383.097656 244.386719 C 385.113281 244.578125 387.121094 244.808594 389.125 245.085938 C 391.128906 245.363281 393.125 245.683594 395.117188 246.042969 C 397.105469 246.40625 399.085938 246.8125 401.058594 247.261719 C 403.03125 247.707031 404.996094 248.199219 406.945312 248.730469 C 408.898438 249.265625 410.835938 249.839844 412.761719 250.457031 C 414.6875 251.074219 416.601562 251.730469 418.5 252.429688 C 420.394531 253.128906 422.277344 253.871094 424.144531 254.652344 C 426.007812 255.429688 427.859375 256.253906 429.6875 257.113281 C 431.519531 257.972656 433.328125 258.875 435.121094 259.8125 C 436.914062 260.75 438.683594 261.730469 440.433594 262.746094 C 442.179688 263.761719 443.90625 264.8125 445.613281 265.902344 C 447.316406 266.992188 448.996094 268.121094 450.648438 269.28125 C 452.304688 270.445312 453.933594 271.644531 455.535156 272.875 C 457.140625 274.109375 458.714844 275.378906 460.265625 276.679688 C 461.8125 277.980469 463.332031 279.3125 464.824219 280.679688 C 466.3125 282.046875 467.773438 283.445312 469.203125 284.878906 C 470.636719 286.308594 472.035156 287.769531 473.402344 289.257812 C 474.769531 290.75 476.101562 292.269531 477.402344 293.816406 C 478.703125 295.367188 479.972656 296.941406 481.207031 298.546875 C 482.4375 300.148438 483.636719 301.777344 484.800781 303.433594 C 485.960938 305.085938 487.089844 306.765625 488.179688 308.46875 C 489.269531 310.175781 490.320312 311.902344 491.335938 313.648438 C 492.351562 315.398438 493.332031 317.167969 494.269531 318.960938 C 495.207031 320.753906 496.109375 322.5625 496.96875 324.394531 C 497.828125 326.222656 498.648438 328.074219 499.429688 329.9375 C 500.210938 331.804688 500.953125 333.6875 501.652344 335.585938 C 502.351562 337.480469 503.007812 339.394531 503.625 341.320312 C 504.242188 343.246094 504.816406 345.1875 505.351562 347.136719 C 505.882812 349.089844 506.375 351.050781 506.820312 353.023438 C 507.269531 354.996094 507.675781 356.976562 508.039062 358.964844 C 508.398438 360.957031 508.71875 362.953125 508.996094 364.957031 C 509.269531 366.960938 509.503906 368.96875 509.691406 370.984375 L 708.699219 370.984375 L 708.699219 106.722656 C 708.699219 104.714844 708.601562 102.710938 708.402344 100.710938 C 708.207031 98.714844 707.910156 96.730469 707.519531 94.757812 C 707.125 92.789062 706.636719 90.84375 706.054688 88.917969 C 705.472656 86.996094 704.792969 85.109375 704.027344 83.253906 C 703.257812 81.398438 702.398438 79.582031 701.449219 77.8125 C 700.503906 76.039062 699.472656 74.320312 698.355469 72.648438 C 697.238281 70.980469 696.042969 69.367188 694.769531 67.8125 C 693.496094 66.261719 692.148438 64.773438 690.726562 63.355469 C 689.308594 61.933594 687.820312 60.585938 686.265625 59.3125 C 684.714844 58.039062 683.101562 56.84375 681.433594 55.726562 C 679.761719 54.609375 678.042969 53.578125 676.269531 52.632812 C 674.5 51.683594 672.683594 50.824219 670.828125 50.054688 C 668.972656 49.289062 667.082031 48.609375 665.160156 48.027344 C 663.238281 47.445312 661.292969 46.957031 659.324219 46.5625 C 657.351562 46.171875 655.367188 45.875 653.367188 45.679688 C 651.371094 45.480469 649.367188 45.382812 647.355469 45.382812 Z M 570.125 322.925781 C 519.851562 322.925781 479.085938 269.523438 479.085938 203.753906 C 483.90625 45.773438 656.214844 45.773438 661.03125 203.753906 C 661.03125 269.523438 620.269531 322.925781 570.125 322.925781 Z M 570.125 322.925781 " fill-opacity="1" fill-rule="nonzero"/></g><path fill="#000000" d="M 255.855469 384.007812 C 255.855469 385.875 255.902344 387.742188 255.996094 389.609375 C 256.085938 391.476562 256.226562 393.339844 256.410156 395.199219 C 256.59375 397.058594 256.824219 398.914062 257.097656 400.761719 C 257.375 402.609375 257.691406 404.449219 258.058594 406.28125 C 258.425781 408.113281 258.835938 409.9375 259.289062 411.75 C 259.742188 413.5625 260.242188 415.363281 260.785156 417.152344 C 261.328125 418.9375 261.914062 420.710938 262.546875 422.472656 C 263.175781 424.230469 263.847656 425.972656 264.566406 427.699219 C 265.28125 429.425781 266.039062 431.132812 266.839844 432.824219 C 267.636719 434.511719 268.476562 436.179688 269.359375 437.828125 C 270.242188 439.476562 271.164062 441.101562 272.125 442.703125 C 273.085938 444.304688 274.085938 445.882812 275.125 447.4375 C 276.164062 448.992188 277.238281 450.519531 278.351562 452.019531 C 279.464844 453.519531 280.617188 454.992188 281.800781 456.4375 C 282.988281 457.878906 284.207031 459.292969 285.464844 460.679688 C 286.71875 462.0625 288.007812 463.417969 289.328125 464.738281 C 290.652344 466.058594 292.003906 467.347656 293.390625 468.601562 C 294.773438 469.855469 296.1875 471.074219 297.632812 472.261719 C 299.078125 473.445312 300.550781 474.59375 302.050781 475.707031 C 303.554688 476.820312 305.082031 477.894531 306.636719 478.933594 C 308.1875 479.972656 309.765625 480.972656 311.371094 481.929688 C 312.972656 482.890625 314.597656 483.8125 316.246094 484.691406 C 317.894531 485.574219 319.566406 486.414062 321.253906 487.210938 C 322.941406 488.011719 324.652344 488.769531 326.378906 489.484375 C 328.105469 490.199219 329.847656 490.871094 331.605469 491.5 C 333.367188 492.128906 335.140625 492.714844 336.929688 493.257812 C 338.71875 493.800781 340.519531 494.296875 342.332031 494.75 C 344.144531 495.203125 345.964844 495.613281 347.800781 495.980469 C 349.632812 496.34375 351.472656 496.664062 353.320312 496.9375 C 355.167969 497.210938 357.023438 497.4375 358.882812 497.621094 C 360.742188 497.804688 362.605469 497.941406 364.472656 498.035156 C 366.339844 498.125 368.207031 498.171875 370.074219 498.171875 C 371.945312 498.171875 373.8125 498.125 375.679688 498.035156 C 377.542969 497.941406 379.40625 497.804688 381.269531 497.621094 C 383.128906 497.4375 384.980469 497.210938 386.828125 496.9375 C 388.679688 496.664062 390.519531 496.34375 392.351562 495.980469 C 394.183594 495.613281 396.007812 495.203125 397.820312 494.75 C 399.632812 494.296875 401.433594 493.800781 403.222656 493.257812 C 405.011719 492.714844 406.785156 492.128906 408.542969 491.5 C 410.304688 490.871094 412.046875 490.199219 413.773438 489.484375 C 415.5 488.769531 417.207031 488.011719 418.898438 487.210938 C 420.585938 486.414062 422.253906 485.574219 423.902344 484.691406 C 425.550781 483.8125 427.175781 482.890625 428.78125 481.929688 C 430.382812 480.972656 431.960938 479.972656 433.515625 478.933594 C 435.070312 477.894531 436.597656 476.820312 438.097656 475.707031 C 439.601562 474.59375 441.074219 473.445312 442.519531 472.261719 C 443.960938 471.074219 445.378906 469.855469 446.761719 468.601562 C 448.148438 467.347656 449.5 466.058594 450.824219 464.738281 C 452.144531 463.417969 453.433594 462.0625 454.6875 460.679688 C 455.941406 459.292969 457.164062 457.878906 458.351562 456.4375 C 459.535156 454.992188 460.683594 453.519531 461.800781 452.019531 C 462.914062 450.519531 463.988281 448.992188 465.027344 447.4375 C 466.066406 445.882812 467.066406 444.304688 468.027344 442.703125 C 468.988281 441.101562 469.910156 439.476562 470.792969 437.828125 C 471.671875 436.179688 472.511719 434.511719 473.3125 432.824219 C 474.113281 431.132812 474.871094 429.425781 475.585938 427.699219 C 476.300781 425.972656 476.976562 424.230469 477.605469 422.472656 C 478.234375 420.710938 478.820312 418.9375 479.363281 417.152344 C 479.910156 415.363281 480.40625 413.5625 480.863281 411.75 C 481.316406 409.9375 481.726562 408.113281 482.09375 406.28125 C 482.457031 404.449219 482.777344 402.609375 483.054688 400.761719 C 483.328125 398.914062 483.558594 397.058594 483.742188 395.199219 C 483.925781 393.339844 484.0625 391.476562 484.15625 389.609375 C 484.25 387.742188 484.296875 385.875 484.296875 384.007812 C 478.4375 232.535156 261.847656 232.535156 255.855469 384.007812 Z M 369.945312 296.355469 C 390.652344 296.355469 390.652344 306.253906 388.046875 322.011719 C 383.882812 352.617188 382.449219 385.046875 378.410156 417.347656 C 377.890625 417.988281 377.300781 418.554688 376.640625 419.050781 C 375.980469 419.542969 375.265625 419.949219 374.507812 420.269531 C 373.746094 420.585938 372.957031 420.808594 372.140625 420.929688 C 371.324219 421.050781 370.503906 421.074219 369.683594 420.996094 C 366.167969 421.125 361.089844 419.691406 360.4375 415.132812 C 358.222656 385.832031 356.140625 356.394531 352.492188 329.175781 C 351.839844 323.445312 350.277344 312.894531 350.410156 309.117188 C 350.277344 303.128906 354.316406 296.09375 369.945312 296.355469 Z M 369.683594 471.65625 C 344.417969 471.789062 344.808594 431.675781 369.945312 431.804688 C 370.59375 431.8125 371.242188 431.855469 371.886719 431.925781 C 372.535156 432 373.171875 432.101562 373.808594 432.238281 C 374.445312 432.371094 375.070312 432.539062 375.691406 432.734375 C 376.308594 432.929688 376.917969 433.15625 377.515625 433.414062 C 378.113281 433.667969 378.695312 433.953125 379.265625 434.265625 C 379.835938 434.578125 380.386719 434.917969 380.921875 435.285156 C 381.460938 435.652344 381.976562 436.042969 382.472656 436.460938 C 382.972656 436.878906 383.449219 437.320312 383.902344 437.785156 C 384.355469 438.25 384.789062 438.734375 385.195312 439.238281 C 385.601562 439.746094 385.984375 440.269531 386.339844 440.8125 C 386.695312 441.355469 387.023438 441.917969 387.324219 442.492188 C 387.625 443.066406 387.898438 443.65625 388.140625 444.257812 C 388.386719 444.863281 388.597656 445.472656 388.78125 446.097656 C 388.964844 446.71875 389.117188 447.351562 389.242188 447.988281 C 389.363281 448.625 389.453125 449.269531 389.511719 449.917969 C 389.570312 450.5625 389.597656 451.210938 389.59375 451.859375 C 389.589844 452.511719 389.554688 453.160156 389.488281 453.804688 C 389.417969 454.449219 389.320312 455.089844 389.191406 455.726562 C 389.058594 456.363281 388.898438 456.992188 388.707031 457.613281 C 388.515625 458.234375 388.292969 458.84375 388.042969 459.441406 C 387.792969 460.042969 387.511719 460.628906 387.203125 461.199219 C 386.894531 461.769531 386.558594 462.324219 386.195312 462.863281 C 385.832031 463.402344 385.445312 463.921875 385.03125 464.421875 C 384.617188 464.925781 384.179688 465.402344 383.71875 465.863281 C 383.257812 466.320312 382.777344 466.753906 382.273438 467.164062 C 381.769531 467.574219 381.246094 467.960938 380.707031 468.320312 C 380.167969 468.679688 379.609375 469.011719 379.035156 469.320312 C 378.460938 469.625 377.875 469.902344 377.273438 470.148438 C 376.675781 470.398438 376.0625 470.613281 375.441406 470.804688 C 374.820312 470.992188 374.191406 471.148438 373.554688 471.277344 C 372.917969 471.402344 372.273438 471.496094 371.628906 471.5625 C 370.980469 471.625 370.335938 471.65625 369.683594 471.65625 Z M 369.683594 471.65625 " fill-opacity="1" fill-rule="nonzero"/><g clip-path="url(#db2b2339b1)"><path fill="#000000" d="M 92.792969 45.382812 C 90.785156 45.382812 88.78125 45.480469 86.78125 45.679688 C 84.78125 45.875 82.796875 46.171875 80.828125 46.5625 C 78.859375 46.957031 76.910156 47.445312 74.988281 48.027344 C 73.066406 48.609375 71.179688 49.289062 69.320312 50.054688 C 67.464844 50.824219 65.652344 51.683594 63.882812 52.632812 C 62.109375 53.578125 60.390625 54.609375 58.71875 55.726562 C 57.046875 56.84375 55.4375 58.039062 53.882812 59.3125 C 52.332031 60.585938 50.84375 61.933594 49.425781 63.355469 C 48.003906 64.773438 46.65625 66.261719 45.382812 67.8125 C 44.105469 69.367188 42.910156 70.980469 41.796875 72.648438 C 40.679688 74.320312 39.648438 76.039062 38.699219 77.8125 C 37.753906 79.582031 36.894531 81.398438 36.125 83.253906 C 35.355469 85.109375 34.679688 86.996094 34.097656 88.917969 C 33.511719 90.84375 33.023438 92.789062 32.632812 94.757812 C 32.242188 96.730469 31.945312 98.714844 31.746094 100.710938 C 31.550781 102.710938 31.453125 104.714844 31.449219 106.722656 L 31.449219 370.984375 L 230.457031 370.984375 C 230.648438 368.96875 230.878906 366.960938 231.15625 364.957031 C 231.433594 362.953125 231.75 360.957031 232.113281 358.964844 C 232.476562 356.976562 232.882812 354.996094 233.328125 353.023438 C 233.777344 351.050781 234.269531 349.089844 234.800781 347.136719 C 235.335938 345.1875 235.910156 343.246094 236.527344 341.320312 C 237.140625 339.394531 237.800781 337.480469 238.5 335.585938 C 239.199219 333.6875 239.9375 331.804688 240.71875 329.9375 C 241.5 328.074219 242.320312 326.222656 243.183594 324.394531 C 244.042969 322.5625 244.941406 320.753906 245.882812 318.960938 C 246.820312 317.167969 247.796875 315.398438 248.8125 313.648438 C 249.828125 311.902344 250.882812 310.175781 251.972656 308.46875 C 253.0625 306.765625 254.1875 305.085938 255.351562 303.433594 C 256.515625 301.777344 257.710938 300.148438 258.945312 298.546875 C 260.179688 296.941406 261.445312 295.367188 262.746094 293.816406 C 264.050781 292.269531 265.382812 290.75 266.75 289.257812 C 268.117188 287.769531 269.515625 286.308594 270.945312 284.878906 C 272.375 283.445312 273.835938 282.046875 275.328125 280.679688 C 276.820312 279.3125 278.339844 277.980469 279.886719 276.679688 C 281.433594 275.378906 283.011719 274.109375 284.613281 272.875 C 286.21875 271.644531 287.847656 270.445312 289.5 269.28125 C 291.15625 268.121094 292.835938 266.992188 294.539062 265.902344 C 296.242188 264.8125 297.96875 263.761719 299.71875 262.746094 C 301.46875 261.730469 303.238281 260.75 305.03125 259.8125 C 306.820312 258.875 308.632812 257.972656 310.460938 257.113281 C 312.292969 256.253906 314.140625 255.429688 316.007812 254.652344 C 317.875 253.871094 319.753906 253.128906 321.652344 252.429688 C 323.550781 251.730469 325.464844 251.074219 327.390625 250.457031 C 329.316406 249.839844 331.253906 249.265625 333.207031 248.730469 C 335.15625 248.199219 337.117188 247.707031 339.089844 247.261719 C 341.0625 246.8125 343.042969 246.40625 345.035156 246.042969 C 347.023438 245.683594 349.023438 245.363281 351.023438 245.085938 C 353.027344 244.808594 355.039062 244.578125 357.050781 244.386719 L 357.050781 45.382812 Z M 266.925781 204.273438 L 209.488281 204.273438 L 212.875 285.675781 C 212.894531 286.191406 212.882812 286.703125 212.851562 287.21875 C 212.816406 287.730469 212.757812 288.242188 212.675781 288.75 C 212.589844 289.257812 212.480469 289.761719 212.347656 290.257812 C 212.214844 290.753906 212.058594 291.246094 211.875 291.726562 C 211.691406 292.207031 211.488281 292.679688 211.257812 293.140625 C 211.03125 293.601562 210.78125 294.050781 210.507812 294.488281 C 210.234375 294.925781 209.941406 295.347656 209.625 295.753906 C 209.3125 296.160156 208.976562 296.554688 208.625 296.925781 C 208.269531 297.300781 207.898438 297.65625 207.511719 297.996094 C 207.121094 298.332031 206.71875 298.652344 206.296875 298.949219 C 205.878906 299.246094 205.445312 299.523438 204.996094 299.777344 C 204.550781 300.035156 204.089844 300.265625 203.621094 300.476562 C 203.148438 300.683594 202.671875 300.871094 202.183594 301.035156 C 201.691406 301.195312 201.199219 301.332031 200.695312 301.445312 C 200.191406 301.558594 199.6875 301.648438 199.175781 301.710938 C 198.664062 301.773438 198.152344 301.8125 197.636719 301.824219 L 175.234375 301.957031 C 174.714844 301.953125 174.195312 301.921875 173.679688 301.867188 C 173.160156 301.8125 172.648438 301.734375 172.136719 301.625 C 171.628906 301.519531 171.125 301.386719 170.628906 301.230469 C 170.132812 301.074219 169.644531 300.894531 169.167969 300.6875 C 168.6875 300.480469 168.222656 300.253906 167.765625 300 C 167.3125 299.75 166.871094 299.472656 166.441406 299.179688 C 166.015625 298.882812 165.601562 298.5625 165.207031 298.226562 C 164.8125 297.890625 164.433594 297.53125 164.070312 297.15625 C 163.710938 296.78125 163.371094 296.390625 163.050781 295.980469 C 162.730469 295.570312 162.429688 295.144531 162.148438 294.707031 C 161.871094 294.265625 161.617188 293.8125 161.382812 293.347656 C 161.148438 292.882812 160.941406 292.40625 160.753906 291.921875 C 160.566406 291.433594 160.40625 290.941406 160.269531 290.4375 C 160.136719 289.933594 160.023438 289.425781 159.9375 288.914062 C 159.851562 288.402344 159.792969 287.882812 159.761719 287.363281 C 159.726562 286.84375 159.71875 286.324219 159.738281 285.804688 L 162.734375 204.277344 L 105.035156 204.277344 C 104.277344 204.273438 103.519531 204.234375 102.765625 204.160156 C 102.011719 204.082031 101.261719 203.972656 100.515625 203.820312 C 99.773438 203.671875 99.039062 203.488281 98.3125 203.265625 C 97.585938 203.042969 96.875 202.789062 96.171875 202.496094 C 95.472656 202.207031 94.789062 201.882812 94.117188 201.523438 C 93.449219 201.164062 92.800781 200.773438 92.167969 200.351562 C 91.539062 199.929688 90.929688 199.480469 90.34375 198.996094 C 89.757812 198.515625 89.195312 198.007812 88.660156 197.46875 C 88.121094 196.933594 87.613281 196.371094 87.132812 195.785156 C 86.648438 195.199219 86.199219 194.589844 85.777344 193.960938 C 85.355469 193.328125 84.964844 192.679688 84.605469 192.011719 C 84.246094 191.339844 83.921875 190.65625 83.632812 189.957031 C 83.339844 189.253906 83.085938 188.542969 82.863281 187.816406 C 82.640625 187.089844 82.457031 186.355469 82.308594 185.609375 C 82.15625 184.867188 82.046875 184.117188 81.96875 183.363281 C 81.894531 182.609375 81.855469 181.851562 81.855469 181.09375 C 81.855469 179.703125 81.894531 178.316406 81.964844 176.929688 C 82.035156 175.539062 82.140625 174.15625 82.277344 172.773438 C 82.417969 171.390625 82.589844 170.015625 82.796875 168.640625 C 83.003906 167.265625 83.242188 165.898438 83.515625 164.539062 C 83.789062 163.175781 84.09375 161.820312 84.433594 160.476562 C 84.773438 159.128906 85.144531 157.789062 85.550781 156.460938 C 85.957031 155.132812 86.394531 153.816406 86.863281 152.507812 C 87.332031 151.203125 87.832031 149.90625 88.367188 148.625 C 88.898438 147.339844 89.464844 146.074219 90.058594 144.816406 C 90.652344 143.5625 91.277344 142.324219 91.933594 141.097656 C 92.589844 139.875 93.273438 138.667969 93.988281 137.476562 C 94.703125 136.285156 95.449219 135.113281 96.21875 133.957031 C 96.992188 132.804688 97.792969 131.667969 98.621094 130.554688 C 99.449219 129.4375 100.304688 128.34375 101.183594 127.269531 C 102.066406 126.195312 102.972656 125.144531 103.90625 124.117188 C 104.839844 123.085938 105.796875 122.082031 106.777344 121.101562 C 107.761719 120.117188 108.765625 119.160156 109.796875 118.226562 C 110.824219 117.292969 111.875 116.386719 112.949219 115.507812 C 114.023438 114.625 115.117188 113.769531 116.230469 112.941406 C 117.347656 112.113281 118.480469 111.3125 119.636719 110.542969 C 120.789062 109.769531 121.964844 109.027344 123.152344 108.3125 C 124.34375 107.597656 125.550781 106.910156 126.777344 106.253906 C 128 105.601562 129.242188 104.976562 130.496094 104.378906 C 131.75 103.785156 133.019531 103.222656 134.300781 102.6875 C 135.585938 102.15625 136.878906 101.652344 138.1875 101.183594 C 139.496094 100.714844 140.8125 100.277344 142.140625 99.871094 C 143.46875 99.46875 144.808594 99.09375 146.152344 98.757812 C 147.5 98.417969 148.855469 98.109375 150.214844 97.835938 C 151.578125 97.5625 152.945312 97.324219 154.320312 97.117188 C 155.691406 96.910156 157.070312 96.738281 158.453125 96.601562 C 159.835938 96.460938 161.21875 96.355469 162.605469 96.285156 C 163.992188 96.214844 165.382812 96.179688 166.769531 96.175781 L 205.191406 96.175781 C 206.582031 96.175781 207.96875 96.210938 209.355469 96.28125 C 210.746094 96.351562 212.128906 96.457031 213.511719 96.59375 C 214.894531 96.730469 216.273438 96.902344 217.648438 97.105469 C 219.019531 97.3125 220.390625 97.550781 221.75 97.824219 C 223.113281 98.09375 224.46875 98.402344 225.816406 98.738281 C 227.164062 99.078125 228.5 99.449219 229.832031 99.855469 C 231.160156 100.257812 232.476562 100.695312 233.785156 101.164062 C 235.09375 101.632812 236.390625 102.132812 237.671875 102.664062 C 238.957031 103.199219 240.226562 103.761719 241.480469 104.355469 C 242.734375 104.949219 243.976562 105.574219 245.203125 106.230469 C 246.425781 106.886719 247.632812 107.570312 248.824219 108.285156 C 250.015625 109 251.191406 109.746094 252.34375 110.515625 C 253.5 111.289062 254.636719 112.089844 255.75 112.917969 C 256.867188 113.746094 257.960938 114.597656 259.035156 115.480469 C 260.109375 116.363281 261.160156 117.269531 262.191406 118.203125 C 263.21875 119.136719 264.226562 120.09375 265.207031 121.074219 C 266.191406 122.058594 267.148438 123.0625 268.082031 124.09375 C 269.015625 125.121094 269.921875 126.175781 270.804688 127.25 C 271.683594 128.320312 272.539062 129.417969 273.367188 130.53125 C 274.195312 131.648438 274.996094 132.785156 275.765625 133.9375 C 276.539062 135.09375 277.28125 136.265625 277.996094 137.457031 C 278.710938 138.648438 279.398438 139.859375 280.050781 141.082031 C 280.707031 142.308594 281.332031 143.546875 281.925781 144.804688 C 282.523438 146.058594 283.085938 147.328125 283.617188 148.613281 C 284.148438 149.894531 284.652344 151.191406 285.121094 152.496094 C 285.589844 153.804688 286.023438 155.125 286.429688 156.453125 C 286.832031 157.78125 287.203125 159.121094 287.542969 160.46875 C 287.882812 161.816406 288.1875 163.171875 288.460938 164.53125 C 288.730469 165.894531 288.972656 167.261719 289.175781 168.636719 C 289.382812 170.011719 289.550781 171.390625 289.691406 172.773438 C 289.828125 174.15625 289.929688 175.539062 290 176.925781 C 290.070312 178.316406 290.105469 179.703125 290.109375 181.09375 C 290.105469 181.851562 290.066406 182.609375 289.992188 183.363281 C 289.914062 184.117188 289.804688 184.867188 289.652344 185.613281 C 289.503906 186.355469 289.320312 187.089844 289.097656 187.816406 C 288.875 188.542969 288.621094 189.253906 288.328125 189.957031 C 288.039062 190.65625 287.714844 191.339844 287.355469 192.011719 C 286.996094 192.679688 286.605469 193.328125 286.183594 193.960938 C 285.761719 194.589844 285.3125 195.199219 284.828125 195.785156 C 284.347656 196.371094 283.839844 196.933594 283.304688 197.46875 C 282.765625 198.007812 282.203125 198.515625 281.617188 198.996094 C 281.03125 199.476562 280.421875 199.929688 279.792969 200.351562 C 279.160156 200.773438 278.511719 201.164062 277.84375 201.523438 C 277.175781 201.878906 276.488281 202.207031 275.789062 202.496094 C 275.089844 202.789062 274.375 203.042969 273.648438 203.265625 C 272.921875 203.488281 272.1875 203.671875 271.445312 203.820312 C 270.699219 203.96875 269.949219 204.082031 269.195312 204.160156 C 268.441406 204.234375 267.683594 204.273438 266.925781 204.273438 Z M 266.925781 204.273438 " fill-opacity="1" fill-rule="nonzero"/></g><path fill="#000000" d="M 193.203125 282.285156 L 179.40625 282.417969 L 182.273438 204.269531 L 189.953125 204.269531 Z M 193.203125 282.285156 " fill-opacity="1" fill-rule="nonzero"/><path fill="#000000" d="M 267.964844 163.640625 C 267.839844 164.316406 267.652344 164.980469 267.410156 165.628906 C 267.167969 166.273438 266.871094 166.894531 266.523438 167.492188 C 266.171875 168.085938 265.773438 168.648438 265.328125 169.175781 C 264.878906 169.699219 264.390625 170.1875 263.859375 170.628906 C 263.328125 171.070312 262.765625 171.464844 262.164062 171.808594 C 261.566406 172.152344 260.945312 172.445312 260.292969 172.679688 C 259.644531 172.917969 258.980469 173.097656 258.300781 173.21875 C 257.621094 173.339844 256.9375 173.402344 256.246094 173.40625 C 255.765625 173.414062 255.289062 173.390625 254.816406 173.339844 C 254.339844 173.285156 253.871094 173.207031 253.402344 173.101562 C 252.9375 172.992188 252.480469 172.859375 252.027344 172.699219 C 251.578125 172.535156 251.140625 172.347656 250.710938 172.136719 C 250.285156 171.921875 249.871094 171.683594 249.46875 171.421875 C 249.070312 171.160156 248.6875 170.875 248.320312 170.566406 C 247.957031 170.261719 247.609375 169.933594 247.28125 169.582031 C 246.953125 169.234375 246.648438 168.867188 246.367188 168.484375 C 246.082031 168.097656 245.820312 167.699219 245.585938 167.28125 C 245.347656 166.867188 245.136719 166.4375 244.953125 165.996094 C 244.765625 165.558594 244.609375 165.105469 244.476562 164.648438 C 244.34375 164.1875 244.238281 163.722656 244.160156 163.25 C 244.085938 162.777344 244.035156 162.304688 244.015625 161.828125 C 243.992188 161.347656 244 160.871094 244.035156 160.394531 C 244.070312 159.917969 244.136719 159.445312 244.226562 158.976562 C 244.316406 158.507812 244.4375 158.042969 244.582031 157.589844 C 244.730469 157.132812 244.902344 156.6875 245.101562 156.253906 C 245.300781 155.820312 245.523438 155.398438 245.773438 154.988281 C 246.023438 154.582031 246.292969 154.1875 246.589844 153.8125 C 246.886719 153.4375 247.203125 153.078125 247.539062 152.742188 C 247.875 152.402344 248.234375 152.085938 248.609375 151.789062 C 248.984375 151.492188 249.375 151.21875 249.78125 150.96875 C 250.191406 150.71875 250.613281 150.496094 251.046875 150.292969 C 251.480469 150.09375 251.925781 149.921875 252.378906 149.773438 C 252.835938 149.625 253.296875 149.503906 253.765625 149.414062 C 254.234375 149.320312 254.707031 149.253906 255.183594 149.21875 C 255.660156 149.179688 256.136719 149.171875 256.617188 149.191406 C 257.09375 149.210938 257.566406 149.261719 258.039062 149.335938 C 258.511719 149.414062 258.976562 149.515625 259.4375 149.648438 C 259.898438 149.777344 260.347656 149.9375 260.789062 150.121094 C 261.230469 150.304688 261.660156 150.515625 262.074219 150.75 C 262.492188 150.984375 262.894531 151.246094 263.277344 151.527344 C 260.722656 146.515625 257.582031 141.90625 253.851562 137.691406 C 250.125 133.480469 245.929688 129.800781 241.269531 126.652344 C 240.433594 127.84375 239.457031 128.90625 238.335938 129.832031 C 237.214844 130.761719 235.992188 131.523438 234.660156 132.117188 C 233.332031 132.710938 231.949219 133.117188 230.511719 133.335938 C 229.074219 133.554688 227.628906 133.578125 226.183594 133.402344 C 224.742188 133.230469 223.34375 132.867188 222 132.3125 C 220.652344 131.757812 219.40625 131.035156 218.257812 130.140625 C 217.105469 129.25 216.097656 128.21875 215.230469 127.050781 C 214.359375 125.882812 213.660156 124.621094 213.136719 123.265625 C 212.363281 121.066406 212.101562 118.808594 212.355469 116.492188 C 209.980469 116.097656 207.59375 115.835938 205.191406 115.710938 L 166.769531 115.710938 C 165.183594 115.714844 163.601562 115.777344 162.019531 115.898438 C 160.4375 116.019531 158.859375 116.195312 157.292969 116.429688 C 155.722656 116.664062 154.164062 116.953125 152.617188 117.300781 C 151.066406 117.648438 149.535156 118.050781 148.015625 118.507812 C 146.496094 118.96875 144.996094 119.480469 143.515625 120.046875 C 142.035156 120.613281 140.574219 121.234375 139.136719 121.90625 C 137.703125 122.582031 136.292969 123.304688 134.90625 124.078125 C 133.523438 124.855469 132.167969 125.679688 130.84375 126.550781 C 129.519531 127.425781 128.230469 128.347656 126.972656 129.3125 C 125.714844 130.28125 124.492188 131.289062 123.308594 132.347656 C 122.125 133.402344 120.980469 134.5 119.875 135.636719 C 118.769531 136.777344 117.707031 137.953125 116.6875 139.167969 C 115.667969 140.382812 114.695312 141.632812 113.765625 142.921875 C 112.835938 144.207031 111.957031 145.523438 111.125 146.875 C 110.289062 148.226562 109.507812 149.605469 108.773438 151.011719 C 108.039062 152.417969 107.359375 153.847656 106.730469 155.304688 C 107.457031 155.628906 108.15625 156.003906 108.828125 156.429688 C 109.5 156.859375 110.136719 157.335938 110.734375 157.859375 C 111.335938 158.386719 111.890625 158.953125 112.402344 159.5625 C 112.917969 160.171875 113.378906 160.816406 113.796875 161.496094 C 114.210938 162.175781 114.574219 162.882812 114.878906 163.617188 C 115.1875 164.351562 115.4375 165.105469 115.632812 165.878906 C 115.828125 166.652344 115.960938 167.433594 116.035156 168.226562 C 116.109375 169.019531 116.125 169.8125 116.078125 170.609375 C 116.03125 171.402344 115.925781 172.191406 115.761719 172.96875 C 115.597656 173.75 115.375 174.511719 115.09375 175.257812 C 114.8125 176.003906 114.476562 176.722656 114.085938 177.417969 C 113.695312 178.109375 113.257812 178.773438 112.765625 179.398438 C 112.277344 180.027344 111.742188 180.613281 111.160156 181.160156 C 110.582031 181.707031 109.964844 182.207031 109.308594 182.660156 C 108.652344 183.113281 107.96875 183.511719 107.25 183.863281 C 106.535156 184.210938 105.796875 184.503906 105.035156 184.738281 L 266.925781 184.738281 C 274.480469 183.828125 268.75 168.589844 267.964844 163.640625 Z M 156.089844 141.890625 C 155.410156 141.878906 154.734375 141.804688 154.066406 141.664062 C 153.398438 141.523438 152.75 141.316406 152.125 141.050781 C 151.496094 140.78125 150.898438 140.457031 150.335938 140.074219 C 149.773438 139.6875 149.25 139.253906 148.773438 138.765625 C 148.292969 138.28125 147.867188 137.753906 147.488281 137.183594 C 147.113281 136.617188 146.796875 136.015625 146.535156 135.382812 C 146.277344 134.753906 146.082031 134.101562 145.949219 133.433594 C 145.820312 132.765625 145.753906 132.085938 145.753906 131.40625 C 145.753906 130.722656 145.820312 130.046875 145.949219 129.378906 C 146.082031 128.707031 146.277344 128.058594 146.535156 127.425781 C 146.796875 126.796875 147.113281 126.195312 147.488281 125.625 C 147.867188 125.058594 148.292969 124.53125 148.773438 124.042969 C 149.25 123.558594 149.773438 123.121094 150.335938 122.738281 C 150.898438 122.355469 151.496094 122.027344 152.125 121.761719 C 152.75 121.492188 153.398438 121.289062 154.066406 121.148438 C 154.734375 121.007812 155.410156 120.929688 156.089844 120.921875 C 156.773438 120.929688 157.449219 121.007812 158.113281 121.148438 C 158.78125 121.289062 159.429688 121.492188 160.058594 121.761719 C 160.683594 122.027344 161.28125 122.355469 161.84375 122.738281 C 162.410156 123.121094 162.929688 123.558594 163.410156 124.042969 C 163.886719 124.53125 164.316406 125.058594 164.691406 125.625 C 165.066406 126.195312 165.386719 126.796875 165.644531 127.425781 C 165.902344 128.058594 166.097656 128.707031 166.230469 129.378906 C 166.363281 130.046875 166.429688 130.722656 166.429688 131.40625 C 166.429688 132.085938 166.363281 132.765625 166.230469 133.433594 C 166.097656 134.101562 165.902344 134.753906 165.644531 135.382812 C 165.386719 136.015625 165.066406 136.617188 164.691406 137.183594 C 164.316406 137.753906 163.886719 138.28125 163.410156 138.765625 C 162.929688 139.253906 162.410156 139.6875 161.84375 140.074219 C 161.28125 140.457031 160.683594 140.78125 160.058594 141.050781 C 159.429688 141.316406 158.78125 141.523438 158.113281 141.664062 C 157.449219 141.804688 156.773438 141.878906 156.089844 141.890625 Z M 187.476562 178.226562 C 187.011719 178.21875 186.554688 178.164062 186.097656 178.066406 C 185.644531 177.96875 185.203125 177.828125 184.777344 177.644531 C 184.351562 177.460938 183.945312 177.238281 183.5625 176.976562 C 183.179688 176.710938 182.824219 176.414062 182.496094 176.082031 C 182.171875 175.75 181.882812 175.390625 181.625 175.003906 C 181.371094 174.613281 181.152344 174.207031 180.976562 173.773438 C 180.800781 173.34375 180.667969 172.902344 180.578125 172.445312 C 180.488281 171.988281 180.445312 171.527344 180.445312 171.0625 C 180.445312 170.597656 180.488281 170.136719 180.578125 169.683594 C 180.667969 169.226562 180.800781 168.78125 180.976562 168.351562 C 181.152344 167.921875 181.371094 167.511719 181.625 167.125 C 181.882812 166.734375 182.171875 166.375 182.496094 166.042969 C 182.824219 165.710938 183.179688 165.414062 183.5625 165.152344 C 183.945312 164.890625 184.351562 164.667969 184.777344 164.484375 C 185.203125 164.300781 185.644531 164.160156 186.097656 164.058594 C 186.554688 163.960938 187.011719 163.910156 187.476562 163.902344 C 187.941406 163.910156 188.402344 163.964844 188.855469 164.0625 C 189.308594 164.160156 189.75 164.300781 190.175781 164.484375 C 190.601562 164.667969 191.007812 164.894531 191.390625 165.15625 C 191.773438 165.417969 192.128906 165.714844 192.453125 166.046875 C 192.777344 166.378906 193.070312 166.738281 193.324219 167.128906 C 193.578125 167.515625 193.792969 167.925781 193.96875 168.355469 C 194.144531 168.785156 194.277344 169.226562 194.367188 169.683594 C 194.457031 170.140625 194.503906 170.597656 194.503906 171.0625 C 194.503906 171.527344 194.457031 171.988281 194.367188 172.445312 C 194.277344 172.898438 194.144531 173.34375 193.96875 173.773438 C 193.792969 174.203125 193.578125 174.613281 193.324219 175 C 193.070312 175.386719 192.777344 175.75 192.453125 176.078125 C 192.128906 176.410156 191.773438 176.707031 191.390625 176.972656 C 191.007812 177.234375 190.601562 177.457031 190.175781 177.640625 C 189.75 177.824219 189.308594 177.96875 188.855469 178.066406 C 188.402344 178.164062 187.941406 178.21875 187.476562 178.226562 Z M 187.476562 178.226562 " fill-opacity="1" fill-rule="nonzero"/><path fill="#000000" d="M 570.125 110.632812 C 484.296875 114.277344 484.296875 293.230469 570.125 296.875 C 655.824219 293.230469 655.824219 114.410156 570.125 110.632812 Z M 569.605469 276.949219 C 506.175781 275.386719 506.046875 182.394531 569.605469 180.703125 C 633.160156 182.394531 633.160156 275.386719 569.605469 276.949219 Z M 569.605469 276.949219 " fill-opacity="1" fill-rule="nonzero"/><path fill="#000000" d="M 569.605469 250.902344 C 568.886719 250.890625 568.171875 250.847656 567.460938 250.769531 C 566.746094 250.6875 566.039062 250.574219 565.339844 250.425781 C 564.636719 250.277344 563.945312 250.097656 563.261719 249.882812 C 562.578125 249.667969 561.90625 249.417969 561.246094 249.136719 C 560.585938 248.855469 559.941406 248.542969 559.3125 248.199219 C 558.683594 247.855469 558.070312 247.484375 557.480469 247.078125 C 556.886719 246.675781 556.316406 246.246094 555.765625 245.785156 C 555.214844 245.328125 554.6875 244.84375 554.183594 244.332031 C 553.679688 243.820312 553.199219 243.289062 552.75 242.730469 C 552.296875 242.175781 551.875 241.597656 551.480469 241 C 551.082031 240.402344 550.71875 239.785156 550.382812 239.152344 C 550.046875 238.519531 549.742188 237.871094 549.472656 237.207031 C 549.199219 236.542969 548.960938 235.867188 548.753906 235.179688 C 548.546875 234.496094 548.375 233.800781 548.234375 233.097656 C 548.097656 232.394531 547.992188 231.683594 547.921875 230.972656 C 547.855469 230.257812 547.820312 229.542969 547.820312 228.824219 C 547.820312 228.109375 547.855469 227.394531 547.921875 226.679688 C 547.992188 225.964844 548.097656 225.257812 548.234375 224.554688 C 548.375 223.851562 548.546875 223.15625 548.753906 222.46875 C 548.960938 221.78125 549.199219 221.105469 549.472656 220.445312 C 549.742188 219.78125 550.046875 219.132812 550.382812 218.5 C 550.71875 217.863281 551.082031 217.25 551.480469 216.652344 C 551.875 216.054688 552.296875 215.476562 552.75 214.917969 C 553.199219 214.363281 553.679688 213.828125 554.183594 213.316406 C 554.6875 212.808594 555.214844 212.324219 555.765625 211.863281 C 556.316406 211.40625 556.886719 210.972656 557.480469 210.570312 C 558.070312 210.167969 558.683594 209.792969 559.3125 209.449219 C 559.941406 209.105469 560.585938 208.792969 561.246094 208.511719 C 561.90625 208.230469 562.578125 207.984375 563.261719 207.769531 C 563.945312 207.554688 564.636719 207.371094 565.339844 207.222656 C 566.039062 207.074219 566.746094 206.960938 567.460938 206.882812 C 568.171875 206.804688 568.886719 206.757812 569.605469 206.75 C 570.320312 206.757812 571.035156 206.804688 571.75 206.882812 C 572.460938 206.960938 573.167969 207.074219 573.871094 207.222656 C 574.570312 207.371094 575.261719 207.554688 575.949219 207.769531 C 576.632812 207.984375 577.304688 208.230469 577.960938 208.511719 C 578.621094 208.792969 579.265625 209.105469 579.894531 209.449219 C 580.523438 209.792969 581.136719 210.167969 581.730469 210.570312 C 582.320312 210.972656 582.894531 211.40625 583.445312 211.863281 C 583.996094 212.324219 584.523438 212.808594 585.027344 213.316406 C 585.527344 213.828125 586.007812 214.363281 586.457031 214.917969 C 586.910156 215.476562 587.332031 216.054688 587.730469 216.652344 C 588.125 217.25 588.488281 217.863281 588.824219 218.5 C 589.160156 219.132812 589.464844 219.78125 589.734375 220.445312 C 590.007812 221.105469 590.246094 221.78125 590.453125 222.46875 C 590.660156 223.15625 590.832031 223.851562 590.972656 224.554688 C 591.109375 225.257812 591.214844 225.964844 591.285156 226.679688 C 591.355469 227.394531 591.390625 228.109375 591.390625 228.824219 C 591.390625 229.542969 591.355469 230.257812 591.285156 230.972656 C 591.214844 231.683594 591.109375 232.394531 590.972656 233.097656 C 590.832031 233.800781 590.660156 234.496094 590.453125 235.179688 C 590.246094 235.867188 590.007812 236.542969 589.734375 237.207031 C 589.464844 237.871094 589.160156 238.519531 588.824219 239.152344 C 588.488281 239.785156 588.125 240.402344 587.730469 241 C 587.332031 241.597656 586.910156 242.175781 586.457031 242.730469 C 586.007812 243.289062 585.527344 243.820312 585.027344 244.332031 C 584.523438 244.84375 583.996094 245.328125 583.445312 245.785156 C 582.894531 246.246094 582.320312 246.675781 581.730469 247.078125 C 581.136719 247.484375 580.523438 247.855469 579.894531 248.199219 C 579.265625 248.542969 578.621094 248.855469 577.960938 249.136719 C 577.304688 249.417969 576.632812 249.667969 575.949219 249.882812 C 575.261719 250.097656 574.570312 250.277344 573.871094 250.425781 C 573.167969 250.574219 572.460938 250.6875 571.75 250.769531 C 571.035156 250.847656 570.320312 250.890625 569.605469 250.902344 Z M 569.605469 250.902344 " fill-opacity="1" fill-rule="nonzero"/><path fill="#000000" d="M 545.507812 620.003906 L 614.273438 620.003906 L 614.273438 641.230469 L 545.507812 641.230469 Z M 545.507812 620.003906 " fill-opacity="1" fill-rule="nonzero"/><path fill="#000000" d="M 613.105469 482.339844 L 546.679688 482.339844 C 545.84375 482.347656 545.007812 482.378906 544.171875 482.441406 C 543.335938 482.503906 542.503906 482.589844 541.675781 482.703125 C 540.84375 482.816406 540.019531 482.957031 539.199219 483.121094 C 538.378906 483.289062 537.5625 483.480469 536.753906 483.699219 C 535.945312 483.914062 535.144531 484.15625 534.351562 484.425781 C 533.558594 484.695312 532.773438 484.988281 532 485.304688 C 531.222656 485.621094 530.460938 485.964844 529.707031 486.328125 C 528.953125 486.695312 528.210938 487.085938 527.484375 487.5 C 526.753906 487.910156 526.039062 488.347656 525.339844 488.804688 C 524.636719 489.261719 523.953125 489.742188 523.28125 490.246094 C 522.609375 490.746094 521.957031 491.269531 521.316406 491.8125 C 520.679688 492.355469 520.058594 492.917969 519.457031 493.5 C 518.855469 494.082031 518.273438 494.679688 517.707031 495.300781 C 517.144531 495.917969 516.601562 496.554688 516.078125 497.207031 C 515.550781 497.863281 515.050781 498.53125 514.566406 499.214844 C 514.085938 499.902344 513.628906 500.601562 513.191406 501.316406 C 512.753906 502.03125 512.339844 502.757812 511.945312 503.496094 C 511.554688 504.238281 511.1875 504.988281 510.84375 505.753906 C 510.5 506.519531 510.179688 507.292969 509.886719 508.074219 C 509.59375 508.859375 509.320312 509.652344 509.078125 510.453125 C 508.832031 511.253906 508.613281 512.0625 508.421875 512.875 C 508.226562 513.691406 508.058594 514.511719 507.917969 515.335938 C 507.777344 516.164062 507.660156 516.992188 507.570312 517.824219 C 507.480469 518.65625 507.417969 519.492188 507.382812 520.328125 C 507.347656 521.164062 507.335938 522.003906 507.351562 522.839844 C 507.371094 523.675781 507.414062 524.511719 507.480469 525.347656 C 507.550781 526.183594 507.648438 527.011719 507.769531 527.84375 C 507.890625 528.671875 508.039062 529.496094 508.214844 530.3125 C 508.386719 531.132812 508.585938 531.945312 508.8125 532.753906 C 509.039062 533.558594 509.289062 534.359375 509.566406 535.148438 C 509.839844 535.9375 510.140625 536.71875 510.46875 537.492188 C 510.792969 538.261719 511.144531 539.023438 511.515625 539.773438 L 542.382812 600.464844 L 617.402344 600.464844 L 648.269531 539.773438 C 648.644531 539.023438 648.996094 538.265625 649.324219 537.492188 C 649.648438 536.71875 649.953125 535.9375 650.230469 535.148438 C 650.507812 534.359375 650.757812 533.558594 650.984375 532.753906 C 651.214844 531.945312 651.414062 531.132812 651.589844 530.3125 C 651.765625 529.492188 651.914062 528.667969 652.039062 527.839844 C 652.160156 527.011719 652.257812 526.179688 652.328125 525.34375 C 652.398438 524.507812 652.441406 523.671875 652.460938 522.835938 C 652.476562 521.996094 652.46875 521.160156 652.433594 520.320312 C 652.398438 519.484375 652.335938 518.648438 652.246094 517.816406 C 652.15625 516.980469 652.042969 516.152344 651.902344 515.328125 C 651.761719 514.5 651.59375 513.679688 651.398438 512.863281 C 651.207031 512.046875 650.988281 511.238281 650.742188 510.4375 C 650.5 509.636719 650.230469 508.84375 649.933594 508.058594 C 649.640625 507.273438 649.320312 506.5 648.976562 505.734375 C 648.632812 504.972656 648.265625 504.21875 647.875 503.476562 C 647.484375 502.738281 647.070312 502.007812 646.632812 501.292969 C 646.191406 500.578125 645.734375 499.878906 645.25 499.191406 C 644.769531 498.507812 644.265625 497.839844 643.742188 497.183594 C 643.21875 496.53125 642.671875 495.894531 642.109375 495.273438 C 641.542969 494.65625 640.960938 494.054688 640.355469 493.472656 C 639.753906 492.890625 639.132812 492.328125 638.496094 491.785156 C 637.855469 491.242188 637.203125 490.71875 636.53125 490.21875 C 635.859375 489.71875 635.171875 489.238281 634.46875 488.78125 C 633.765625 488.320312 633.050781 487.886719 632.320312 487.472656 C 631.59375 487.0625 630.851562 486.671875 630.097656 486.308594 C 629.34375 485.941406 628.578125 485.601562 627.800781 485.285156 C 627.027344 484.96875 626.242188 484.675781 625.445312 484.40625 C 624.652344 484.140625 623.851562 483.898438 623.039062 483.683594 C 622.230469 483.464844 621.414062 483.273438 620.59375 483.109375 C 619.769531 482.945312 618.945312 482.808594 618.113281 482.695312 C 617.285156 482.582031 616.449219 482.496094 615.613281 482.4375 C 614.777344 482.378906 613.941406 482.34375 613.105469 482.339844 Z M 541.601562 564.257812 L 528.449219 522.453125 L 547.074219 516.722656 L 560.226562 558.398438 Z M 590.050781 561.265625 L 570.515625 561.265625 L 570.515625 519.585938 L 590.050781 519.585938 Z M 618.183594 564.257812 L 599.558594 558.398438 L 612.714844 516.722656 L 631.335938 522.453125 Z M 618.183594 564.257812 " fill-opacity="1" fill-rule="nonzero"/></svg>