<svg xmlns="http://www.w3.org/2000/svg" xmlns:xlink="http://www.w3.org/1999/xlink" width="640" zoomAndPan="magnify" viewBox="0 0 480 479.999983" height="640" preserveAspectRatio="xMidYMid meet" version="1.0"><defs><g/><clipPath id="1738466aab"><path d="M 76 191 L 110 191 L 110 267 L 76 267 Z M 76 191 " clip-rule="nonzero"/></clipPath><clipPath id="813be95b96"><path d="M 76.222656 191.007812 L 308.566406 288.960938 L 276.042969 366.105469 L 43.699219 268.152344 Z M 76.222656 191.007812 " clip-rule="nonzero"/></clipPath><clipPath id="9272fa65b9"><path d="M 76.222656 191.007812 L 308.566406 288.960938 L 276.042969 366.105469 L 43.699219 268.152344 Z M 76.222656 191.007812 " clip-rule="nonzero"/></clipPath><clipPath id="1fba71f280"><path d="M 92 213 L 298 213 L 298 328 L 92 328 Z M 92 213 " clip-rule="nonzero"/></clipPath><clipPath id="573129c6be"><path d="M 76.222656 191.007812 L 308.566406 288.960938 L 276.042969 366.105469 L 43.699219 268.152344 Z M 76.222656 191.007812 " clip-rule="nonzero"/></clipPath><clipPath id="b8a6f7a699"><path d="M 76.222656 191.007812 L 308.566406 288.960938 L 276.042969 366.105469 L 43.699219 268.152344 Z M 76.222656 191.007812 " clip-rule="nonzero"/></clipPath><clipPath id="581fd0de37"><path d="M 164 166 L 374 166 L 374 287 L 164 287 Z M 164 166 " clip-rule="nonzero"/></clipPath><clipPath id="57c196a8ea"><path d="M 153.175781 100.574219 L 392.640625 179.539062 L 350.074219 308.628906 L 110.609375 229.660156 Z M 153.175781 100.574219 " clip-rule="nonzero"/></clipPath><clipPath id="1bbb29053b"><path d="M 153.175781 100.574219 L 392.640625 179.539062 L 350.074219 308.628906 L 110.609375 229.660156 Z M 153.175781 100.574219 " clip-rule="nonzero"/></clipPath><clipPath id="aafaa03ab9"><path d="M 138 116 L 287 116 L 287 207 L 138 207 Z M 138 116 " clip-rule="nonzero"/></clipPath><clipPath id="8650be6623"><path d="M 153.175781 100.574219 L 392.640625 179.539062 L 350.074219 308.628906 L 110.609375 229.660156 Z M 153.175781 100.574219 " clip-rule="nonzero"/></clipPath><clipPath id="96f34b8078"><path d="M 153.175781 100.574219 L 392.640625 179.539062 L 350.074219 308.628906 L 110.609375 229.660156 Z M 153.175781 100.574219 " clip-rule="nonzero"/></clipPath><clipPath id="09ef02fe89"><path d="M 58 31 L 407 31 L 407 320 L 58 320 Z M 58 31 " clip-rule="nonzero"/></clipPath><clipPath id="56bb758b65"><path d="M 308.929688 366.207031 L 53.324219 110.601562 L 231.621094 -67.695312 L 487.222656 187.910156 Z M 308.929688 366.207031 " clip-rule="nonzero"/></clipPath><clipPath id="f3d14a66cb"><path d="M 308.929688 366.207031 L 53.324219 110.601562 L 231.621094 -67.695312 L 487.222656 187.910156 Z M 308.929688 366.207031 " clip-rule="nonzero"/></clipPath></defs><g clip-path="url(#1738466aab)"><g clip-path="url(#813be95b96)"><g clip-path="url(#9272fa65b9)"><path fill="#313131" d="M 92.847656 213.515625 C 82.132812 201.136719 76.175781 191.0625 76.175781 191.0625 C 80.5625 218.511719 92.253906 244.839844 109.339844 266.988281 C 97.730469 245.230469 93.84375 226.613281 92.847656 213.515625 " fill-opacity="1" fill-rule="nonzero"/></g></g></g><g clip-path="url(#1fba71f280)"><g clip-path="url(#573129c6be)"><g clip-path="url(#b8a6f7a699)"><path fill="#0034d1" d="M 297.199219 313.402344 C 296.957031 309.335938 293.292969 308.179688 289.222656 308.054688 C 289.222656 308.054688 262.835938 313.699219 238.03125 309.910156 C 214.851562 306.371094 191.378906 296.425781 194.167969 282.664062 C 195.761719 274.800781 231.6875 278.671875 231.6875 278.671875 C 243.59375 277.160156 229.140625 259.859375 174.109375 258.820312 C 138.320312 258.144531 109.695312 232.976562 92.847656 213.515625 C 93.84375 226.613281 97.730469 245.230469 109.339844 266.988281 C 119.386719 280.007812 131.292969 291.585938 144.691406 301.089844 C 178.535156 325.101562 220.710938 332.066406 261.195312 325.484375 C 271.765625 323.761719 282.175781 321.160156 292.316406 317.730469 C 296.347656 316.367188 297.324219 315.550781 297.199219 313.402344 " fill-opacity="1" fill-rule="nonzero"/></g></g></g><g clip-path="url(#581fd0de37)"><g clip-path="url(#57c196a8ea)"><g clip-path="url(#1bbb29053b)"><path fill="#0034d1" d="M 164.515625 222.914062 C 208.109375 214.253906 247.929688 222.652344 275.910156 253 L 284.015625 227.121094 L 278.601562 215.011719 C 305 252.03125 346.871094 247.96875 352.347656 224.113281 C 355.59375 209.960938 345.089844 200.34375 323.949219 200.554688 C 292.1875 200.871094 260.519531 193.757812 244.34375 166.128906 C 287.261719 211.296875 312.25 170.675781 356.0625 191.355469 C 384.328125 204.695312 371.511719 239.144531 361.5 248.136719 C 342.75 264.980469 320.496094 260.347656 299.5625 244.683594 L 284.765625 286.96875 C 255.769531 241.976562 210.101562 229.222656 164.515625 222.914062 Z M 164.515625 222.914062 " fill-opacity="1" fill-rule="evenodd"/></g></g></g><g clip-path="url(#aafaa03ab9)"><g clip-path="url(#8650be6623)"><g clip-path="url(#96f34b8078)"><path fill="#0034d1" d="M 141.125 142.496094 C 132.410156 163.515625 142.371094 186.554688 165.523438 198.839844 C 174.773438 203.75 199.9375 211.441406 212.890625 202.335938 C 201.144531 206.363281 179.621094 198.777344 171.933594 192.898438 C 154.976562 179.921875 152.289062 163.054688 158.109375 148.289062 C 163.484375 134.648438 179.636719 127.386719 207.074219 136.359375 C 224.746094 142.183594 253.253906 181.011719 286.859375 179.851562 C 252.355469 175.394531 235.792969 135.699219 207.105469 122.054688 C 181.796875 110.03125 151.917969 116.449219 141.121094 142.492188 Z M 141.125 142.496094 " fill-opacity="1" fill-rule="evenodd"/></g></g></g><g clip-path="url(#09ef02fe89)"><g clip-path="url(#56bb758b65)"><g clip-path="url(#f3d14a66cb)"><path fill="#313131" d="M 58.921875 109.886719 L 64.507812 118.4375 C 69.449219 126 75.480469 132.761719 82.367188 138.554688 C 84.15625 140.058594 85.992188 141.503906 87.894531 142.871094 C 89.011719 143.675781 90.136719 144.464844 91.289062 145.214844 L 99.835938 150.800781 C 101.667969 151.996094 104.105469 151.636719 105.511719 149.960938 L 136.402344 113.171875 C 138.378906 110.816406 139.816406 108.042969 140.511719 105.050781 C 142.082031 98.257812 140.9375 91.1875 137.75 83.90625 C 189.855469 46.195312 261.800781 41.921875 319.292969 78.644531 C 394.402344 126.617188 416.398438 226.402344 368.425781 301.511719 C 364.253906 308.039062 359.683594 314.15625 354.78125 319.875 C 364.175781 310.847656 372.667969 300.582031 379.996094 289.117188 C 429.824219 211.109375 406.976562 107.476562 328.964844 57.648438 C 264.550781 16.503906 182.667969 24.921875 128.027344 73.023438 C 119.671875 68.921875 111.574219 67.375 103.84375 69.421875 C 101.164062 70.132812 98.710938 71.511719 96.585938 73.292969 L 59.761719 104.214844 C 58.085938 105.621094 57.726562 108.058594 58.921875 109.886719 Z M 133.71875 98.945312 C 133.734375 98.960938 133.75 98.976562 133.765625 98.992188 C 134.597656 99.824219 134.625 101.175781 133.8125 102.042969 L 98.238281 139.910156 C 97.410156 140.789062 96.027344 140.835938 95.144531 140.007812 C 94.28125 139.195312 94.21875 137.792969 95.046875 136.910156 L 130.621094 99.042969 C 131.449219 98.160156 132.835938 98.117188 133.71875 98.945312 Z M 88.835938 123.988281 L 85.679688 127.140625 C 84.824219 127.996094 83.4375 127.996094 82.582031 127.140625 C 81.730469 126.285156 81.730469 124.898438 82.582031 124.042969 L 119 87.628906 C 119.855469 86.773438 121.242188 86.773438 122.097656 87.628906 C 122.953125 88.480469 122.953125 89.871094 122.097656 90.722656 Z M 107.683594 75.910156 C 108.550781 75.097656 109.898438 75.121094 110.730469 75.957031 C 110.75 75.972656 110.765625 75.988281 110.78125 76.003906 C 111.609375 76.886719 111.566406 78.273438 110.683594 79.101562 L 72.816406 114.675781 C 71.933594 115.503906 70.550781 115.433594 69.71875 114.578125 C 68.890625 113.695312 68.933594 112.308594 69.816406 111.480469 L 107.683594 75.90625 Z M 107.683594 75.910156 " fill-opacity="1" fill-rule="nonzero"/></g></g></g><g fill="#0034d1" fill-opacity="1"><g transform="translate(20.478916, 426.522435)"><g><path d="M 6.296875 0 L 6.296875 -58.828125 L 32.015625 -58.828125 C 38.347656 -58.828125 43.332031 -57.609375 46.96875 -55.171875 C 50.613281 -52.734375 52.4375 -48.992188 52.4375 -43.953125 C 52.4375 -40.535156 51.597656 -37.757812 49.921875 -35.625 C 48.242188 -33.5 46.085938 -31.988281 43.453125 -31.09375 C 45.410156 -30.53125 47.242188 -29.660156 48.953125 -28.484375 C 50.660156 -27.316406 52.0625 -25.75 53.15625 -23.78125 C 54.25 -21.820312 54.796875 -19.382812 54.796875 -16.46875 C 54.796875 -13.113281 54.082031 -10.367188 52.65625 -8.234375 C 51.226562 -6.109375 49.347656 -4.441406 47.015625 -3.234375 C 44.691406 -2.023438 42.1875 -1.179688 39.5 -0.703125 C 36.8125 -0.234375 34.179688 0 31.609375 0 Z M 18.90625 -35.125 L 31.515625 -35.046875 C 33.984375 -35.046875 35.972656 -35.601562 37.484375 -36.71875 C 38.992188 -37.84375 39.75 -39.523438 39.75 -41.765625 C 39.75 -44.066406 38.960938 -45.765625 37.390625 -46.859375 C 35.828125 -47.953125 33.644531 -48.5 30.84375 -48.5 L 18.90625 -48.5 Z M 18.90625 -10.34375 L 31.4375 -10.34375 C 33.34375 -10.34375 35.09375 -10.523438 36.6875 -10.890625 C 38.28125 -11.253906 39.566406 -11.96875 40.546875 -13.03125 C 41.523438 -14.09375 42.015625 -15.6875 42.015625 -17.8125 C 42.015625 -19.882812 41.539062 -21.46875 40.59375 -22.5625 C 39.644531 -23.65625 38.410156 -24.394531 36.890625 -24.78125 C 35.378906 -25.175781 33.785156 -25.375 32.109375 -25.375 L 18.90625 -25.375 Z M 18.90625 -10.34375 "/></g></g></g><g fill="#0034d1" fill-opacity="1"><g transform="translate(78.133563, 426.522435)"><g><path d="M 10.921875 -47.0625 C 9.128906 -47.0625 7.53125 -47.59375 6.125 -48.65625 C 4.726562 -49.726562 4.03125 -51.410156 4.03125 -53.703125 C 4.03125 -56.003906 4.726562 -57.671875 6.125 -58.703125 C 7.53125 -59.742188 9.128906 -60.265625 10.921875 -60.265625 C 12.773438 -60.265625 14.375 -59.742188 15.71875 -58.703125 C 17.0625 -57.671875 17.734375 -56.003906 17.734375 -53.703125 C 17.734375 -51.410156 17.0625 -49.726562 15.71875 -48.65625 C 14.375 -47.59375 12.773438 -47.0625 10.921875 -47.0625 Z M 5.046875 0 L 5.046875 -40.34375 L 16.71875 -40.34375 L 16.71875 0 Z M 5.046875 0 "/></g></g></g><g fill="#0034d1" fill-opacity="1"><g transform="translate(99.985155, 426.522435)"><g><path d="M 16.3125 1.171875 C 13.84375 1.171875 11.53125 0.695312 9.375 -0.25 C 7.21875 -1.207031 5.492188 -2.609375 4.203125 -4.453125 C 2.910156 -6.304688 2.265625 -8.546875 2.265625 -11.171875 C 2.265625 -13.753906 2.796875 -15.898438 3.859375 -17.609375 C 4.929688 -19.316406 6.332031 -20.6875 8.0625 -21.71875 C 9.800781 -22.757812 11.722656 -23.503906 13.828125 -23.953125 C 15.929688 -24.398438 17.988281 -24.625 20 -24.625 C 21.625 -24.625 23.265625 -24.523438 24.921875 -24.328125 C 26.578125 -24.128906 28.128906 -23.863281 29.578125 -23.53125 L 29.578125 -24.96875 C 29.578125 -26.925781 28.78125 -28.546875 27.1875 -29.828125 C 25.59375 -31.117188 23.226562 -31.765625 20.09375 -31.765625 C 17.289062 -31.765625 14.679688 -31.441406 12.265625 -30.796875 C 9.859375 -30.160156 7.703125 -29.445312 5.796875 -28.65625 L 5.796875 -38.828125 C 7.421875 -39.390625 9.644531 -39.976562 12.46875 -40.59375 C 15.300781 -41.207031 18.257812 -41.515625 21.34375 -41.515625 C 25.4375 -41.515625 28.96875 -40.910156 31.9375 -39.703125 C 34.90625 -38.503906 37.203125 -36.570312 38.828125 -33.90625 C 40.453125 -31.25 41.265625 -27.707031 41.265625 -23.28125 L 41.265625 -10.421875 C 41.265625 -9.359375 41.554688 -8.644531 42.140625 -8.28125 C 42.734375 -7.914062 43.394531 -7.734375 44.125 -7.734375 C 44.457031 -7.734375 44.804688 -7.773438 45.171875 -7.859375 C 45.535156 -7.941406 45.882812 -8.007812 46.21875 -8.0625 L 46.21875 -0.421875 C 45.320312 -0.0859375 44.3125 0.1875 43.1875 0.40625 C 42.070312 0.632812 40.925781 0.75 39.75 0.75 C 37.84375 0.75 36.132812 0.390625 34.625 -0.328125 C 33.113281 -1.054688 31.9375 -2.148438 31.09375 -3.609375 L 30.921875 -3.859375 C 29.023438 -2.296875 26.867188 -1.066406 24.453125 -0.171875 C 22.046875 0.722656 19.332031 1.171875 16.3125 1.171875 Z M 20.5 -7.140625 C 22.125 -7.140625 23.707031 -7.421875 25.25 -7.984375 C 26.789062 -8.546875 28.234375 -9.414062 29.578125 -10.59375 L 29.578125 -16.71875 C 28.679688 -16.945312 27.601562 -17.144531 26.34375 -17.3125 C 25.082031 -17.476562 23.863281 -17.5625 22.6875 -17.5625 C 20.613281 -17.5625 18.691406 -17.171875 16.921875 -16.390625 C 15.160156 -15.609375 14.28125 -14.179688 14.28125 -12.109375 C 14.28125 -10.585938 14.882812 -9.378906 16.09375 -8.484375 C 17.300781 -7.585938 18.769531 -7.140625 20.5 -7.140625 Z M 20.5 -7.140625 "/></g></g></g><g fill="#313131" fill-opacity="1"><g transform="translate(146.966112, 426.522435)"><g><path d="M 6.296875 0 L 6.296875 -58.828125 L 28.484375 -58.828125 C 33.253906 -58.828125 37.539062 -58.238281 41.34375 -57.0625 C 45.15625 -55.882812 48.195312 -53.867188 50.46875 -51.015625 C 52.738281 -48.160156 53.875 -44.179688 53.875 -39.078125 C 53.875 -34.035156 52.738281 -30.070312 50.46875 -27.1875 C 48.195312 -24.300781 45.15625 -22.269531 41.34375 -21.09375 C 37.539062 -19.914062 33.253906 -19.328125 28.484375 -19.328125 L 18.90625 -19.328125 L 18.90625 0 Z M 18.90625 -30.421875 L 29.078125 -30.421875 C 31.210938 -30.421875 33.175781 -30.660156 34.96875 -31.140625 C 36.757812 -31.617188 38.203125 -32.488281 39.296875 -33.75 C 40.390625 -35.007812 40.9375 -36.785156 40.9375 -39.078125 C 40.9375 -41.378906 40.390625 -43.160156 39.296875 -44.421875 C 38.203125 -45.679688 36.757812 -46.546875 34.96875 -47.015625 C 33.175781 -47.492188 31.210938 -47.734375 29.078125 -47.734375 L 18.90625 -47.734375 Z M 18.90625 -30.421875 "/></g></g></g><g fill="#313131" fill-opacity="1"><g transform="translate(202.939867, 426.522435)"><g><path d="M 5.046875 0 L 5.046875 -61.359375 L 16.71875 -61.359375 L 16.71875 0 Z M 5.046875 0 "/></g></g></g><g fill="#313131" fill-opacity="1"><g transform="translate(224.791467, 426.522435)"><g><path d="M 16.3125 1.171875 C 13.84375 1.171875 11.53125 0.695312 9.375 -0.25 C 7.21875 -1.207031 5.492188 -2.609375 4.203125 -4.453125 C 2.910156 -6.304688 2.265625 -8.546875 2.265625 -11.171875 C 2.265625 -13.753906 2.796875 -15.898438 3.859375 -17.609375 C 4.929688 -19.316406 6.332031 -20.6875 8.0625 -21.71875 C 9.800781 -22.757812 11.722656 -23.503906 13.828125 -23.953125 C 15.929688 -24.398438 17.988281 -24.625 20 -24.625 C 21.625 -24.625 23.265625 -24.523438 24.921875 -24.328125 C 26.578125 -24.128906 28.128906 -23.863281 29.578125 -23.53125 L 29.578125 -24.96875 C 29.578125 -26.925781 28.78125 -28.546875 27.1875 -29.828125 C 25.59375 -31.117188 23.226562 -31.765625 20.09375 -31.765625 C 17.289062 -31.765625 14.679688 -31.441406 12.265625 -30.796875 C 9.859375 -30.160156 7.703125 -29.445312 5.796875 -28.65625 L 5.796875 -38.828125 C 7.421875 -39.390625 9.644531 -39.976562 12.46875 -40.59375 C 15.300781 -41.207031 18.257812 -41.515625 21.34375 -41.515625 C 25.4375 -41.515625 28.96875 -40.910156 31.9375 -39.703125 C 34.90625 -38.503906 37.203125 -36.570312 38.828125 -33.90625 C 40.453125 -31.25 41.265625 -27.707031 41.265625 -23.28125 L 41.265625 -10.421875 C 41.265625 -9.359375 41.554688 -8.644531 42.140625 -8.28125 C 42.734375 -7.914062 43.394531 -7.734375 44.125 -7.734375 C 44.457031 -7.734375 44.804688 -7.773438 45.171875 -7.859375 C 45.535156 -7.941406 45.882812 -8.007812 46.21875 -8.0625 L 46.21875 -0.421875 C 45.320312 -0.0859375 44.3125 0.1875 43.1875 0.40625 C 42.070312 0.632812 40.925781 0.75 39.75 0.75 C 37.84375 0.75 36.132812 0.390625 34.625 -0.328125 C 33.113281 -1.054688 31.9375 -2.148438 31.09375 -3.609375 L 30.921875 -3.859375 C 29.023438 -2.296875 26.867188 -1.066406 24.453125 -0.171875 C 22.046875 0.722656 19.332031 1.171875 16.3125 1.171875 Z M 20.5 -7.140625 C 22.125 -7.140625 23.707031 -7.421875 25.25 -7.984375 C 26.789062 -8.546875 28.234375 -9.414062 29.578125 -10.59375 L 29.578125 -16.71875 C 28.679688 -16.945312 27.601562 -17.144531 26.34375 -17.3125 C 25.082031 -17.476562 23.863281 -17.5625 22.6875 -17.5625 C 20.613281 -17.5625 18.691406 -17.171875 16.921875 -16.390625 C 15.160156 -15.609375 14.28125 -14.179688 14.28125 -12.109375 C 14.28125 -10.585938 14.882812 -9.378906 16.09375 -8.484375 C 17.300781 -7.585938 18.769531 -7.140625 20.5 -7.140625 Z M 20.5 -7.140625 "/></g></g></g><g fill="#313131" fill-opacity="1"><g transform="translate(271.772431, 426.522435)"><g><path d="M 4.953125 0 L 4.953125 -40.34375 L 15.296875 -40.34375 L 15.296875 -35.21875 C 16.867188 -37.007812 18.773438 -38.503906 21.015625 -39.703125 C 23.253906 -40.910156 25.832031 -41.515625 28.75 -41.515625 C 32.269531 -41.515625 35.25 -40.785156 37.6875 -39.328125 C 40.125 -37.878906 41.972656 -35.90625 43.234375 -33.40625 C 44.503906 -30.914062 45.140625 -28.101562 45.140625 -24.96875 L 45.140625 0 L 33.453125 0 L 33.453125 -23.453125 C 33.453125 -26.140625 32.707031 -28.125 31.21875 -29.40625 C 29.738281 -30.695312 27.878906 -31.34375 25.640625 -31.34375 C 23.566406 -31.34375 21.769531 -30.8125 20.25 -29.75 C 18.738281 -28.6875 17.535156 -27.539062 16.640625 -26.3125 L 16.640625 0 Z M 4.953125 0 "/></g></g></g><g fill="#313131" fill-opacity="1"><g transform="translate(321.358793, 426.522435)"><g><path d="M 4.953125 0 L 4.953125 -40.34375 L 15.296875 -40.34375 L 15.296875 -35.21875 C 16.867188 -37.007812 18.773438 -38.503906 21.015625 -39.703125 C 23.253906 -40.910156 25.832031 -41.515625 28.75 -41.515625 C 32.269531 -41.515625 35.25 -40.785156 37.6875 -39.328125 C 40.125 -37.878906 41.972656 -35.90625 43.234375 -33.40625 C 44.503906 -30.914062 45.140625 -28.101562 45.140625 -24.96875 L 45.140625 0 L 33.453125 0 L 33.453125 -23.453125 C 33.453125 -26.140625 32.707031 -28.125 31.21875 -29.40625 C 29.738281 -30.695312 27.878906 -31.34375 25.640625 -31.34375 C 23.566406 -31.34375 21.769531 -30.8125 20.25 -29.75 C 18.738281 -28.6875 17.535156 -27.539062 16.640625 -26.3125 L 16.640625 0 Z M 4.953125 0 "/></g></g></g><g fill="#313131" fill-opacity="1"><g transform="translate(370.945127, 426.522435)"><g><path d="M 26.046875 1.171875 C 21.796875 1.171875 17.90625 0.375 14.375 -1.21875 C 10.84375 -2.8125 8.007812 -5.207031 5.875 -8.40625 C 3.75 -11.601562 2.6875 -15.523438 2.6875 -20.171875 C 2.6875 -23.984375 3.332031 -27.234375 4.625 -29.921875 C 5.914062 -32.609375 7.597656 -34.804688 9.671875 -36.515625 C 11.742188 -38.222656 14 -39.484375 16.4375 -40.296875 C 18.875 -41.109375 21.210938 -41.515625 23.453125 -41.515625 C 27.648438 -41.515625 31.148438 -40.769531 33.953125 -39.28125 C 36.753906 -37.800781 38.925781 -35.84375 40.46875 -33.40625 C 42.007812 -30.96875 42.960938 -28.265625 43.328125 -25.296875 C 43.691406 -22.328125 43.535156 -19.359375 42.859375 -16.390625 L 14.453125 -16.390625 C 14.898438 -14.429688 15.820312 -12.847656 17.21875 -11.640625 C 18.625 -10.429688 20.332031 -9.546875 22.34375 -8.984375 C 24.363281 -8.429688 26.46875 -8.15625 28.65625 -8.15625 C 30.957031 -8.15625 33.128906 -8.363281 35.171875 -8.78125 C 37.210938 -9.195312 39.101562 -9.769531 40.84375 -10.5 L 40.84375 -1.34375 C 38.9375 -0.5625 36.75 0.0507812 34.28125 0.5 C 31.820312 0.945312 29.078125 1.171875 26.046875 1.171875 Z M 14.375 -23.953125 L 32.1875 -23.953125 C 32.351562 -24.898438 32.238281 -26.046875 31.84375 -27.390625 C 31.457031 -28.742188 30.632812 -29.953125 29.375 -31.015625 C 28.113281 -32.078125 26.28125 -32.609375 23.875 -32.609375 C 21.40625 -32.609375 19.234375 -31.863281 17.359375 -30.375 C 15.484375 -28.894531 14.488281 -26.753906 14.375 -23.953125 Z M 14.375 -23.953125 "/></g></g></g><g fill="#313131" fill-opacity="1"><g transform="translate(417.001596, 426.522435)"><g><path d="M 4.953125 0 L 4.953125 -40.34375 L 15.296875 -40.34375 L 15.296875 -34.296875 C 16.753906 -36.535156 18.894531 -38.335938 21.71875 -39.703125 C 24.550781 -41.078125 27.875 -41.570312 31.6875 -41.1875 L 31.6875 -29.75 C 28.4375 -30.363281 25.4375 -30.109375 22.6875 -28.984375 C 19.945312 -27.867188 17.929688 -26.109375 16.640625 -23.703125 L 16.640625 0 Z M 4.953125 0 "/></g></g></g></svg>