<svg xmlns="http://www.w3.org/2000/svg" xmlns:xlink="http://www.w3.org/1999/xlink" width="6912" zoomAndPan="magnify" viewBox="0 0 5184 2592.000001" height="3456" preserveAspectRatio="xMidYMid meet" version="1.0"><defs><clipPath id="3a101b905d"><path d="M 441.949219 259.101562 L 1219.25 259.101562 L 1219.25 1036.398438 L 441.949219 1036.398438 Z M 441.949219 259.101562 " clip-rule="nonzero"/></clipPath></defs><path fill="#313131" d="M 2882.78125 757.535156 L 3023.210938 500.242188 C 2987.492188 516.128906 2951.917969 534.027344 2917.097656 554.242188 C 2793.253906 626.175781 2691.75 717.292969 2625.097656 808.675781 L 2816.679688 799.019531 C 2844.464844 797.65625 2869.519531 781.910156 2882.78125 757.535156 Z M 2882.78125 757.535156 " fill-opacity="1" fill-rule="nonzero"/><path fill="#313131" d="M 3070.167969 247.4375 C 3031.460938 226.132812 2983.003906 240.5625 2961.847656 279.269531 L 2953.539062 294.507812 C 2994.582031 277.605469 3035.433594 263.675781 3076.140625 252.445312 C 3073.945312 250.953125 3072.554688 248.734375 3070.167969 247.4375 Z M 3070.167969 247.4375 " fill-opacity="1" fill-rule="nonzero"/><path fill="#313131" d="M 2160.1875 346.90625 C 2174.179688 330.175781 2193.847656 319.90625 2215.554688 317.976562 C 2218.003906 317.761719 2220.441406 317.660156 2222.851562 317.660156 C 2256.148438 317.660156 2284.179688 337.53125 2296.851562 366.371094 L 2330.902344 363.34375 C 2339.070312 330.488281 2366.441406 304.558594 2402 301.382812 C 2404.464844 301.167969 2406.890625 301.0625 2409.300781 301.0625 C 2425.363281 301.0625 2439.574219 306.746094 2452.199219 314.703125 C 2437.636719 225.121094 2369.902344 149.507812 2275.671875 130.429688 C 2154.09375 105.8125 2035.550781 184.421875 2010.933594 306.019531 C 2005.023438 335.25 2005.363281 364.230469 2010.542969 391.847656 L 2144.320312 379.9375 C 2147.257812 367.996094 2152.070312 356.613281 2160.1875 346.90625 Z M 2160.1875 346.90625 " fill-opacity="1" fill-rule="nonzero"/><path fill="#313131" d="M 2409.191406 464.296875 C 2409.179688 464.296875 2409.179688 464.296875 2409.179688 464.296875 C 2366.648438 464.296875 2331.71875 432.320312 2327.953125 389.921875 C 2327.871094 389.035156 2328.269531 388.261719 2328.222656 387.386719 L 2303.386719 389.597656 C 2303.496094 390.46875 2303.996094 391.167969 2304.082031 392.046875 C 2308.066406 436.851562 2274.84375 476.578125 2230.019531 480.574219 C 2227.570312 480.789062 2225.144531 480.890625 2222.734375 480.890625 C 2180.1875 480.890625 2145.273438 448.910156 2141.496094 406.5 C 2141.421875 405.636719 2141.8125 404.84375 2141.761719 403.976562 L 2016.96875 415.082031 C 2040.148438 491.675781 2102.605469 553.769531 2186.523438 570.757812 C 2283.996094 590.488281 2378.617188 543.28125 2425.355469 461.390625 C 2422.304688 462.019531 2419.625 463.695312 2416.480469 463.976562 C 2414.03125 464.195312 2411.59375 464.296875 2409.191406 464.296875 Z M 2409.191406 464.296875 " fill-opacity="1" fill-rule="nonzero"/><path fill="#313131" d="M 1956.09375 1532.242188 L 1756.445312 1648.191406 L 1756.445312 2361.191406 C 1756.445312 2429.382812 1811.722656 2484.621094 1879.875 2484.621094 C 1948.035156 2484.621094 2003.316406 2429.382812 2003.316406 2361.191406 L 2003.316406 1553.164062 C 2003.023438 1553.125 2002.730469 1553.144531 2002.4375 1553.101562 C 1984.988281 1550.617188 1969.789062 1542.574219 1956.09375 1532.242188 Z M 1956.09375 1532.242188 " fill-opacity="1" fill-rule="nonzero"/><path fill="#313131" d="M 1801.890625 1342.035156 C 1788.800781 1333.074219 1775.53125 1324.140625 1762.292969 1315.296875 C 1761.710938 1314.90625 1761.136719 1314.511719 1760.550781 1314.121094 L 1759.808594 1317.789062 C 1758.6875 1323.328125 1759.722656 1328.625 1759.796875 1334.054688 C 1758.992188 1339.726562 1756.445312 1344.769531 1756.445312 1350.664062 L 1756.445312 1368.425781 Z M 1801.890625 1342.035156 " fill-opacity="1" fill-rule="nonzero"/><path fill="#313131" d="M 2296.476562 2361.191406 L 2296.476562 1388.492188 L 2308.84375 1327.378906 L 2119.070312 1437.597656 C 2119.070312 1446.960938 2120.140625 1455.960938 2118.738281 1465.78125 C 2113.183594 1504.859375 2085.410156 1535.894531 2049.601562 1548.105469 L 2049.601562 2361.191406 C 2049.601562 2429.382812 2104.882812 2484.621094 2173.035156 2484.621094 C 2241.195312 2484.621094 2296.476562 2429.382812 2296.476562 2361.191406 Z M 2296.476562 2361.191406 " fill-opacity="1" fill-rule="nonzero"/><path fill="#313131" d="M 2333.632812 1278.347656 C 2360.226562 1262.90625 2375.554688 1235.582031 2376.96875 1207.007812 L 2490.503906 1141.070312 C 2490.773438 1141.53125 2490.980469 1142.011719 2491.234375 1142.46875 C 2541.054688 1228.222656 2644.425781 1274.964844 2783.371094 1274.964844 C 2788.671875 1274.964844 2794.035156 1274.898438 2799.421875 1274.757812 C 2941.019531 1271.179688 3102.21875 1220.886719 3253.3125 1133.136719 C 3404.40625 1045.378906 3527.960938 930.296875 3601.226562 809.066406 C 3677.324219 683.210938 3690.753906 564.871094 3639.054688 475.84375 L 3584.507812 381.949219 C 3532.808594 292.941406 3423.152344 245.925781 3276.347656 249.65625 C 3134.746094 253.238281 2973.546875 303.53125 2822.453125 391.28125 C 2671.359375 479.039062 2547.808594 594.121094 2474.515625 715.34375 C 2398.445312 841.210938 2385.015625 959.554688 2436.710938 1048.578125 C 2437.515625 1049.976562 2438.464844 1051.261719 2439.292969 1052.632812 L 2325.664062 1118.636719 C 2300.132812 1105.699219 2268.800781 1105.5 2242.21875 1120.925781 L 2019.539062 1250.253906 C 2068.808594 1294.589844 2106.417969 1344.703125 2116.949219 1404.195312 Z M 2902.058594 528.347656 C 3057.332031 438.164062 3217.824219 392.371094 3347.726562 392.371094 C 3437.226562 392.371094 3512.089844 414.222656 3560.839844 458.171875 C 3575.023438 523.691406 3555.792969 603.644531 3504 689.355469 C 3434.972656 803.527344 3317.683594 912.457031 3173.707031 996.0625 C 2911.296875 1148.46875 2634.066406 1174.007812 2514.707031 1066.058594 C 2480.097656 908.898438 2639.660156 680.746094 2902.058594 528.347656 Z M 2902.058594 528.347656 " fill-opacity="1" fill-rule="nonzero"/><path fill="#313131" d="M 1914.632812 1440.933594 C 1912.890625 1437.179688 1906.832031 1426.539062 1888.296875 1408.757812 C 1871.890625 1393.042969 1851.320312 1377 1828.96875 1360.9375 L 1548.292969 1523.949219 C 1506.5625 1548.183594 1492.378906 1601.660156 1516.617188 1643.390625 L 1520.273438 1649.679688 C 1544.5 1691.417969 1597.976562 1705.59375 1639.707031 1681.359375 L 1933.558594 1510.703125 C 1918.996094 1490.265625 1912.085938 1465.84375 1914.632812 1440.933594 Z M 1914.632812 1440.933594 " fill-opacity="1" fill-rule="nonzero"/><path fill="#313131" d="M 1774.96875 1296.152344 C 1822.046875 1327.59375 1870.710938 1360.097656 1904.1875 1392.183594 C 1933.410156 1420.203125 1938.40625 1436.226562 1937.871094 1440.042969 C 1931.644531 1483.707031 1962.015625 1524.152344 2005.679688 1530.359375 C 2009.507812 1530.910156 2013.285156 1531.171875 2017.039062 1531.171875 C 2056.160156 1531.171875 2090.332031 1502.402344 2096.011719 1462.546875 C 2114.730469 1331.003906 1981.355469 1241.914062 1863.703125 1163.320312 C 1828.800781 1140 1778.492188 1106.398438 1758.503906 1085.820312 C 1801.9375 945.859375 1847.738281 863.960938 1885.871094 815.703125 L 1907.894531 824.957031 C 1886.003906 851.617188 1860.4375 893.285156 1833.992188 951.34375 L 1804.960938 1094.734375 C 1827.15625 1111.273438 1855.039062 1129.914062 1876.085938 1143.976562 C 1916.300781 1170.84375 1957.773438 1199.113281 1995.324219 1229.6875 L 2227.167969 1095.035156 C 2245.046875 1084.65625 2265.363281 1079.179688 2285.910156 1079.179688 C 2298.621094 1079.179688 2311.332031 1081.277344 2323.398438 1085.316406 L 2362.445312 1062.636719 L 2380.066406 975.644531 C 2366.503906 893.113281 2389.390625 798.28125 2448.898438 699.855469 C 2457.867188 685.011719 2469.835938 670.695312 2480.21875 656.070312 L 2352.949219 662.488281 L 1986.230469 588.246094 C 1984.402344 587.875 1982.695312 588.476562 1980.867188 588.238281 C 1980.269531 588.179688 1979.796875 587.8125 1979.1875 587.765625 C 1974.164062 587.394531 1966.339844 587.265625 1956.371094 588.226562 C 1955.980469 588.308594 1955.578125 588.3125 1955.175781 588.394531 C 1910.695312 593 1823.753906 620.9375 1735.179688 752.394531 C 1688.378906 821.839844 1641.179688 919.695312 1599.660156 1059.207031 C 1569.898438 1159.15625 1669.515625 1225.699219 1774.96875 1296.152344 Z M 1774.96875 1296.152344 " fill-opacity="1" fill-rule="nonzero"/><path fill="#313131" d="M 2404.050781 324.261719 C 2371.777344 327.132812 2347.953125 355.621094 2350.816406 387.878906 C 2353.691406 420.148438 2382.1875 443.976562 2414.445312 441.105469 C 2446.703125 438.234375 2470.542969 409.753906 2467.664062 377.484375 C 2464.789062 345.222656 2436.308594 321.386719 2404.050781 324.261719 Z M 2404.050781 324.261719 " fill-opacity="1" fill-rule="nonzero"/><path fill="#313131" d="M 2217.589844 340.851562 C 2185.332031 343.71875 2161.503906 372.207031 2164.367188 404.472656 C 2167.234375 436.742188 2195.726562 460.5625 2227.984375 457.691406 C 2260.242188 454.820312 2284.082031 426.347656 2281.207031 394.074219 C 2278.339844 361.8125 2249.859375 337.980469 2217.589844 340.851562 Z M 2217.589844 340.851562 " fill-opacity="1" fill-rule="nonzero"/><path fill="#313131" d="M 3148.785156 913.140625 C 2927.019531 1055.929688 2683.523438 1076.121094 2591.265625 963.019531 C 2593.875 968.304688 2596.679688 973.488281 2599.90625 978.496094 C 2682.890625 1107.386719 2937.207031 1091.441406 3167.933594 942.886719 C 3398.679688 794.332031 3518.453125 569.417969 3435.460938 440.527344 C 3433.144531 436.9375 3430.511719 433.628906 3427.929688 430.289062 C 3426.894531 428.96875 3426.003906 427.527344 3424.929688 426.230469 C 3425.503906 427.375 3425.503906 428.765625 3426.050781 429.925781 C 3487.085938 561.007812 3368.625 771.59375 3148.785156 913.140625 Z M 3148.785156 913.140625 " fill-opacity="1" fill-rule="nonzero"/><g clip-path="url(#3a101b905d)"><path fill="#ffffff" d="M 441.949219 259.101562 L 1219.25 259.101562 L 1219.25 1036.398438 L 441.949219 1036.398438 Z M 441.949219 259.101562 " fill-opacity="1" fill-rule="nonzero"/></g></svg>