<svg xmlns="http://www.w3.org/2000/svg" xmlns:xlink="http://www.w3.org/1999/xlink" width="6912" zoomAndPan="magnify" viewBox="0 0 5184 2592.000001" height="3456" preserveAspectRatio="xMidYMid meet" version="1.0"><defs><clipPath id="938222891c"><path d="M 1401 83 L 3783 83 L 3783 2524.976562 L 1401 2524.976562 Z M 1401 83 " clip-rule="nonzero"/></clipPath><clipPath id="f6c0018859"><path d="M 441.949219 259.101562 L 1219.25 259.101562 L 1219.25 1036.398438 L 441.949219 1036.398438 Z M 441.949219 259.101562 " clip-rule="nonzero"/></clipPath></defs><path fill="#313131" d="M 2726.507812 697.738281 C 2687.050781 689.210938 2660.988281 712.445312 2659.101562 713.28125 C 2650.433594 719.738281 2650.476562 720.570312 2637.1875 711.394531 C 2634.128906 709.277344 2631.054688 707.171875 2627.941406 705.402344 C 2587.804688 682.59375 2537.257812 711.371094 2536.753906 757.796875 C 2536.671875 765.605469 2542.929688 772.011719 2550.738281 772.09375 C 2550.796875 772.09375 2550.851562 772.09375 2550.898438 772.09375 C 2558.640625 772.09375 2564.957031 765.859375 2565.039062 758.101562 C 2565.304688 733.40625 2592.378906 717.710938 2613.964844 730 C 2616.375 731.367188 2618.734375 733.019531 2621.101562 734.660156 C 2641.835938 749.011719 2654.910156 751.671875 2675.992188 735.976562 C 2677.875 735.125 2694.460938 719.726562 2720.523438 725.390625 C 2734.683594 728.453125 2747.53125 737.730469 2754.894531 750.214844 C 2758.882812 756.957031 2767.566406 759.179688 2774.261719 755.210938 C 2780.992188 751.242188 2783.230469 742.570312 2779.261719 735.839844 C 2767.960938 716.683594 2748.238281 702.4375 2726.507812 697.738281 Z M 2726.507812 697.738281 " fill-opacity="1" fill-rule="nonzero"/><path fill="#313131" d="M 2636.46875 656.058594 C 2635.125 664.585938 2641.6875 672.402344 2650.457031 672.402344 C 2657.296875 672.402344 2663.3125 667.429688 2664.40625 660.457031 C 2669.433594 628.542969 2666.71875 595.480469 2656.570312 564.847656 C 2654.101562 557.433594 2646.0625 553.414062 2638.699219 555.871094 C 2631.285156 558.328125 2627.261719 566.332031 2629.71875 573.746094 C 2638.457031 600.117188 2640.789062 628.578125 2636.46875 656.058594 Z M 2636.46875 656.058594 " fill-opacity="1" fill-rule="nonzero"/><path fill="#313131" d="M 2586.800781 490.230469 C 2583.253906 483.257812 2574.753906 480.507812 2567.777344 484.039062 C 2541.808594 497.25 2512.710938 505.230469 2483.648438 507.109375 C 2475.847656 507.617188 2469.9375 514.34375 2470.445312 522.136719 C 2470.933594 529.625 2477.148438 535.371094 2484.550781 535.371094 C 2505.582031 535.371094 2546.359375 526.675781 2580.613281 509.25 C 2587.574219 505.710938 2590.34375 497.191406 2586.800781 490.230469 Z M 2586.800781 490.230469 " fill-opacity="1" fill-rule="nonzero"/><path fill="#313131" d="M 2767.03125 474.015625 C 2761.359375 468.652344 2752.410156 468.890625 2747.042969 474.570312 C 2741.671875 480.25 2741.921875 489.199219 2747.601562 494.566406 C 2775.210938 520.679688 2813.042969 535.292969 2852.171875 533.828125 C 2859.980469 533.519531 2866.058594 526.945312 2865.753906 519.136719 C 2865.441406 511.339844 2858.949219 505.496094 2851.066406 505.558594 C 2820.46875 506.777344 2789.1875 494.964844 2767.03125 474.015625 Z M 2767.03125 474.015625 " fill-opacity="1" fill-rule="nonzero"/><path fill="#313131" d="M 2779.363281 329.617188 C 2775.144531 323.035156 2766.378906 321.128906 2759.824219 325.324219 C 2753.246094 329.539062 2751.324219 338.285156 2755.53125 344.863281 C 2775.152344 375.527344 2808.46875 396.238281 2844.640625 400.265625 C 2852.34375 401.128906 2859.390625 395.589844 2860.265625 387.773438 C 2861.121094 380.011719 2855.53125 373.019531 2847.769531 372.152344 C 2820.414062 369.105469 2794.195312 352.808594 2779.363281 329.617188 Z M 2779.363281 329.617188 " fill-opacity="1" fill-rule="nonzero"/><path fill="#313131" d="M 2500.851562 413.589844 C 2522.976562 418.171875 2546.527344 412.386719 2566.46875 401.394531 C 2584.976562 391.195312 2600.226562 377.285156 2614.976562 363.839844 C 2620.75 358.574219 2621.164062 349.628906 2615.898438 343.855469 C 2610.628906 338.074219 2601.671875 337.691406 2595.914062 342.933594 C 2571.261719 365.425781 2540.71875 392.929688 2506.578125 385.890625 C 2498.898438 384.277344 2491.449219 389.234375 2489.863281 396.878906 C 2488.28125 404.53125 2493.199219 412.011719 2500.851562 413.589844 Z M 2500.851562 413.589844 " fill-opacity="1" fill-rule="nonzero"/><g clip-path="url(#938222891c)"><path fill="#313131" d="M 3768.179688 2507.953125 C 3775.988281 2507.953125 3782.324219 2501.621094 3782.324219 2493.808594 L 3782.324219 2065.875 C 3782.324219 2058.976562 3776.519531 2052.042969 3768.589844 2051.8125 C 3764.226562 2051.6875 3201.96875 2051.683594 3199.988281 2051.714844 C 3199.839844 1984.644531 3195.339844 1913.816406 3188.894531 1841.890625 C 3211.882812 1871.8125 3238.554688 1898.628906 3268.660156 1921.808594 C 3321.390625 1962.398438 3370.726562 1925.460938 3339.378906 1859.558594 C 3313.289062 1804.726562 3273.347656 1755.746094 3225.1875 1718.273438 C 3280.265625 1726.074219 3354.191406 1726.0625 3383.441406 1678.898438 C 3422.070312 1616.5625 3353.675781 1521.277344 3242.25 1559 C 3213.15625 1568.84375 3187.226562 1585.929688 3163.722656 1602.8125 C 3158.421875 1554.433594 3124.386719 1250.507812 3146.816406 1205.101562 C 3163.792969 1171.152344 3176.664062 1186.21875 3556.539062 895.023438 C 3655.230469 819.382812 3714.210938 732.875 3617.515625 647.121094 C 3583.574219 617.304688 3538.882812 598.101562 3379.96875 515.3125 C 3373.875 512.152344 3366.433594 513.792969 3362.253906 519.191406 C 3352.144531 532.171875 3355.636719 527.6875 3354.878906 528.65625 C 3314.65625 514.089844 3269.09375 493.535156 3215.4375 465.429688 C 3087.476562 398.683594 3074.113281 324.824219 3039.972656 254.195312 C 3017.886719 208.519531 2979.871094 156.417969 2930.984375 150.285156 C 2895.113281 117.957031 2855.039062 100.914062 2812.226562 97.328125 C 2768.667969 94.523438 2756.726562 103.332031 2733.617188 112.625 C 2644.496094 66.824219 2518.210938 73.226562 2416.722656 150.214844 C 2367.246094 119.585938 2302.710938 185.882812 2272.0625 241.226562 C 2234.234375 308.980469 2216.652344 382.617188 2084.859375 442.121094 C 1954.027344 501.410156 1949.292969 486.726562 1926.761719 514.433594 C 1923.347656 513.421875 1919.609375 513.5625 1916.238281 515.3125 C 1758.773438 597.347656 1723.734375 613.8125 1696.535156 633.101562 C 1620.71875 686.777344 1612.808594 760.636719 1662.117188 824.863281 C 1724.347656 905.949219 2140.722656 1173.28125 2152.726562 1214.417969 C 2168.882812 1269.941406 2137.855469 1544.984375 2131.195312 1602.613281 C 2107.214844 1585.375 2082.074219 1568.851562 2052.941406 1559 C 1943.539062 1521.984375 1872.277344 1615.238281 1911.753906 1678.894531 C 1941 1726.078125 2015.160156 1726.039062 2070.003906 1718.273438 C 2021.847656 1755.742188 1981.902344 1804.71875 1955.804688 1859.558594 C 1950.683594 1870.316406 1945.898438 1882.042969 1945.511719 1894.890625 C 1944.457031 1929.964844 1978.265625 1958.964844 2026.535156 1921.808594 C 2052.851562 1901.546875 2081.316406 1870.039062 2105.589844 1838.519531 C 2100.542969 1896.171875 2097.179688 1953.503906 2096.570312 2009.671875 L 1947.832031 1944.089844 C 1919.46875 1931.699219 1881.640625 1954.035156 1849.414062 2000.746094 L 1668.40625 1920.988281 C 1621.230469 1899.84375 1581.171875 1955.515625 1596.5625 1994.882812 C 1608.648438 2025.746094 1636.644531 2025.296875 1688.832031 2051.714844 L 1415.816406 2051.714844 C 1408.007812 2051.714844 1401.671875 2058.042969 1401.671875 2065.855469 C 1401.671875 2073.671875 1408.007812 2080 1415.816406 2080 L 1753.03125 2080 L 1804.492188 2102.675781 C 1791.675781 2158.144531 1800.679688 2201.136719 1828.972656 2213.585938 C 2386.667969 2458.113281 2347.929688 2445.746094 2364.265625 2445.746094 C 2390.230469 2445.746094 2420.4375 2423.105469 2446.207031 2385.671875 C 2616.109375 2458.988281 2612.394531 2462.558594 2631.191406 2462.558594 C 2670.628906 2462.558594 2680.136719 2425.042969 2681.726562 2423.015625 C 2692.988281 2397.460938 2681.359375 2367.503906 2655.816406 2356.242188 L 2491.179688 2283.65625 C 2496.40625 2261.042969 2498.003906 2240.007812 2495.886719 2222.253906 C 2522.5 2223.125 2628.480469 2246.90625 2780.273438 2222.507812 C 2862.652344 2222.203125 2940.699219 2188.65625 2997.78125 2130.363281 C 3047.035156 2196.6875 3138.851562 2164.980469 3149.386719 2080 L 3746.6875 2080 L 3562.816406 2506.21875 C 3558.769531 2515.605469 3565.722656 2525.96875 3575.792969 2525.96875 C 3581.269531 2525.96875 3586.484375 2522.769531 3588.785156 2517.425781 L 3754.035156 2134.363281 L 3754.035156 2493.808594 C 3754.035156 2501.621094 3760.371094 2507.953125 3768.179688 2507.953125 Z M 3001.046875 1895.855469 C 3019.484375 1888.960938 3042.46875 1878.28125 3058.085938 1866.414062 L 3058.085938 1914.519531 C 3037.324219 1907.542969 3011.753906 1909.363281 3001.046875 1895.855469 Z M 2818.265625 1805.296875 L 2806.960938 1805.296875 C 2789.820312 1778.332031 2757.242188 1760.90625 2725.457031 1762.96875 C 2694.664062 1765.050781 2603.613281 1799.566406 2574.691406 1856.089844 C 2521.429688 1795.40625 2467.320312 1796.621094 2429.503906 1831.507812 C 2412.867188 1846.464844 2395.828125 1871.996094 2391.136719 1894.875 C 2350.332031 1886.9375 2296.167969 1873.910156 2259.789062 1853.386719 C 2244.546875 1844.785156 2223.304688 1829.710938 2229.527344 1813.441406 C 2239.261719 1787.960938 2296.035156 1768.140625 2322.164062 1760.324219 C 2322.171875 1760.324219 2322.179688 1760.3125 2322.183594 1760.3125 C 2494.574219 1708.347656 2805.261719 1709.984375 2970.46875 1762.144531 C 3035.066406 1782.488281 3058.085938 1805.078125 3058.085938 1819.441406 C 3058.085938 1841.035156 3011.550781 1861.671875 2991.3125 1869.207031 C 2981.273438 1827.539062 2954.003906 1801.085938 2921.480469 1790.871094 C 2891.089844 1781.449219 2846.808594 1791.207031 2818.265625 1805.296875 Z M 2867.355469 329.105469 C 2893.433594 351.691406 2914.953125 382.007812 2929.667969 417.8125 C 2932.363281 440.363281 2935.890625 457.683594 2947.210938 477.121094 C 2955.339844 520.734375 2956.234375 568.570312 2949.890625 629.457031 C 2866.292969 875.433594 2624.183594 938.332031 2491.660156 811.699219 C 2395.980469 723.363281 2377.234375 592.0625 2382.335938 463.039062 C 2426.664062 375.050781 2546.03125 367.367188 2621.789062 293.855469 C 2645.167969 271.226562 2650.273438 258.136719 2668.457031 227.152344 C 2707.546875 267.066406 2766.046875 276.804688 2813.15625 296.183594 C 2813.136719 300.144531 2813.59375 304.058594 2814.796875 307.800781 C 2821.023438 327.058594 2848.140625 336.421875 2867.355469 329.105469 Z M 2333.019531 1727.859375 C 2359 1178.707031 2334.996094 1195.648438 2431.261719 872.957031 C 2433.238281 872.261719 2482.933594 854.777344 2480.960938 855.46875 C 2480.75 857.359375 2433.550781 1286 2433.695312 1287.894531 C 2431.570312 1304.78125 2438.175781 1311.375 2447.238281 1311.375 C 2449.1875 1311.375 2841.386719 1305.414062 2843.535156 1305.351562 C 2850.679688 1305.242188 2856.621094 1299.832031 2857.382812 1292.734375 C 2873.96875 1139.753906 2863.636719 992.835938 2826.703125 855.875 C 2840.011719 845.414062 2856.441406 833.351562 2872.226562 821.25 C 2965.144531 1153.230469 2903.816406 1280.765625 2958.058594 1729.023438 C 2784.976562 1681.546875 2498.109375 1683.980469 2333.019531 1727.859375 Z M 2591.519531 896.589844 C 2635.703125 906.410156 2687.109375 905.09375 2735.589844 890.960938 C 2736.894531 923.84375 2735.152344 952.9375 2713.480469 979.179688 C 2667.621094 1034.691406 2576.800781 989.8125 2591.519531 896.589844 Z M 2908.484375 848.457031 C 2904.367188 832.195312 2894.949219 794.230469 2891.140625 789.066406 C 2915.5625 761.261719 2936.914062 729.371094 2954.125 694 C 2969.824219 715.445312 3002.171875 718.214844 3028.519531 695.957031 C 3059.101562 670.726562 3068.554688 627.3125 3071.605469 587.65625 C 3201.558594 682.460938 3200.296875 682.339844 3214.632812 690.644531 C 3132.523438 767.773438 3042.488281 827.140625 2908.484375 848.457031 Z M 2242.691406 558.796875 C 2251.238281 630.585938 2281.519531 695.570312 2328.242188 741.917969 C 2353.34375 767.023438 2387.800781 776.683594 2407.171875 747.691406 C 2423.167969 776.875 2442.648438 802.75 2464.667969 824.628906 C 2462.664062 827.992188 2460.523438 830.96875 2458.253906 833.570312 L 2418.058594 847.605469 C 2416.164062 847.855469 2414.894531 847.050781 2410.078125 850.875 C 2323.796875 847.589844 2184.488281 796.8125 2062.195312 671.714844 C 2082.992188 663.417969 2082.238281 661.871094 2242.691406 558.796875 Z M 3313.835938 1871.714844 C 3331.777344 1909.441406 3315.9375 1922.519531 3285.917969 1899.394531 C 3214.691406 1844.566406 3193.574219 1793.550781 3183.835938 1788.578125 C 3181.464844 1764.960938 3178.980469 1741.320312 3176.414062 1717.714844 C 3182.328125 1723.738281 3264.230469 1767.457031 3313.835938 1871.714844 Z M 3251.3125 1585.792969 C 3336.199219 1557.0625 3384.207031 1623.976562 3359.398438 1663.992188 C 3331.148438 1709.519531 3222.789062 1693.765625 3171.910156 1676.746094 C 3171.371094 1671.933594 3167.550781 1637.429688 3167.296875 1635.128906 C 3193.597656 1615.855469 3220.804688 1596.113281 3251.3125 1585.792969 Z M 3014.503906 266.503906 C 3048.011719 335.871094 3064.859375 418.792969 3202.332031 490.496094 C 3250.175781 515.558594 3308.53125 543.523438 3362.132812 561.285156 C 3345.097656 660.925781 3283.007812 689.484375 3243.585938 673.160156 C 3230.335938 668.636719 3218.207031 659.757812 3204.996094 650.085938 C 3012.851562 510.050781 2993.597656 498.636719 2974.042969 466.800781 C 2970.25 448.589844 2965.386719 430.621094 2957.328125 410.699219 C 2954.226562 389.738281 2954.183594 350.542969 2931.140625 322.640625 C 2915.367188 303.058594 2889.085938 293.527344 2868.460938 299.109375 C 2868.359375 299.128906 2868.246094 299.195312 2868.144531 299.214844 C 2867.808594 299.296875 2867.457031 299.308594 2867.125 299.398438 C 2866.871094 299.46875 2866.722656 299.703125 2866.476562 299.785156 C 2863.585938 300.460938 2860.628906 301.296875 2857.605469 302.816406 C 2853.527344 304.800781 2843.265625 301.886719 2841.71875 299.132812 C 2840.441406 295.140625 2842.246094 287.601562 2849.308594 282.484375 C 2861.035156 273.457031 2875.042969 276.433594 2881.996094 272.65625 C 2901.78125 276.023438 2920.507812 286.257812 2933.65625 301.425781 C 2936.445312 304.648438 2940.386719 306.300781 2944.347656 306.300781 C 2956.292969 306.300781 2963.023438 292.117188 2955.019531 282.886719 C 2928.851562 252.714844 2887.796875 241.214844 2876.910156 244.476562 C 2875.4375 242.972656 2874.152344 241.15625 2873.3125 238.980469 C 2867.546875 224.078125 2884.769531 216.914062 2893.066406 221.402344 C 2894.003906 221.90625 2895.011719 222.050781 2896.003906 222.324219 C 2898.359375 223 2897.039062 223.230469 2901.222656 222.800781 C 2901.929688 222.726562 2902.652344 222.832031 2903.332031 222.652344 C 2904.097656 222.453125 2904.75 221.980469 2905.472656 221.660156 C 2920.03125 227.164062 2933.742188 235.070312 2945.652344 245.019531 C 2951.671875 250.035156 2960.582031 249.214844 2965.582031 243.230469 C 2970.589844 237.234375 2969.789062 228.3125 2963.792969 223.304688 C 2947.0625 209.335938 2927.355469 198.855469 2906.542969 192.292969 C 2906.554688 192.136719 2906.515625 191.902344 2906.527344 191.765625 C 2907.042969 186.828125 2910.320312 181.78125 2914.234375 179.996094 C 2925.015625 174.96875 2939.675781 180.324219 2949.777344 186.464844 C 2974.742188 201.359375 2995.304688 226.792969 3014.503906 266.503906 Z M 1967.039062 519.285156 C 2004.820312 507.074219 2047.179688 490.257812 2096.515625 467.894531 C 2238.097656 403.972656 2259.230469 322.296875 2296.785156 254.96875 C 2347.09375 164.113281 2408.457031 157.875 2408.621094 187.023438 C 2387.542969 192.394531 2367.34375 201.71875 2349.917969 214.667969 C 2343.648438 219.328125 2342.339844 228.1875 2347 234.457031 C 2351.683594 240.757812 2360.554688 242.011719 2366.789062 237.375 C 2379.292969 228.085938 2393.492188 220.964844 2408.398438 216.292969 C 2418.820312 221.542969 2420.957031 212.546875 2431.675781 216.714844 C 2443.078125 221.132812 2443.273438 233.566406 2435.398438 240.683594 C 2424.507812 236.820312 2382.929688 246.207031 2355.285156 274.652344 C 2349.835938 280.25 2349.964844 289.207031 2355.5625 294.652344 C 2361.179688 300.101562 2370.125 299.960938 2375.5625 294.371094 C 2389.578125 279.957031 2408.882812 270.792969 2428.863281 268.574219 C 2432.804688 270.976562 2441.8125 271.109375 2450.746094 274.484375 C 2465.453125 279.898438 2469.710938 290.875 2467.621094 297.207031 C 2466.195312 299.417969 2456.492188 302.421875 2451.835938 300.316406 C 2434.496094 292.632812 2415.59375 290.253906 2398.925781 298.820312 C 2398.917969 298.820312 2398.917969 298.824219 2398.914062 298.824219 C 2398.914062 298.828125 2398.90625 298.828125 2398.90625 298.828125 C 2397.011719 300.113281 2383.683594 306.621094 2374.394531 318.566406 C 2374.28125 318.699219 2374.21875 318.863281 2374.113281 319.003906 C 2344.117188 355.261719 2351.738281 402.507812 2336.296875 438.621094 C 2319.570312 478.597656 2275.644531 502.429688 2247.023438 522.347656 C 2059.515625 642.574219 2054.417969 652.125 2023.976562 650.609375 C 1991.769531 648.953125 1956.527344 624.398438 1940.527344 569.550781 C 1934.882812 549.675781 1945.546875 526.363281 1967.039062 519.285156 Z M 1935.796875 1663.992188 C 1911.394531 1624.636719 1957.828125 1556.671875 2043.882812 1585.792969 C 2074.203125 1596.046875 2101.28125 1615.628906 2127.453125 1634.816406 C 2127.332031 1635.816406 2124.8125 1657.421875 2122.546875 1676.980469 C 2071.804688 1693.828125 1963.941406 1709.382812 1935.796875 1663.992188 Z M 2009.277344 1899.390625 C 2003.152344 1904.109375 1988.023438 1914.570312 1979.699219 1909.796875 C 1976.035156 1907.675781 1973.59375 1901.898438 1973.78125 1895.738281 C 1974.019531 1887.734375 1977.8125 1879.140625 1981.347656 1871.714844 C 2029.789062 1769.921875 2110.285156 1724.910156 2117.816406 1718.636719 C 2115.429688 1739.824219 2113.117188 1761.050781 2110.953125 1782.304688 C 2084.617188 1822.488281 2044.65625 1872.160156 2009.277344 1899.390625 Z M 1834.53125 2098.351562 C 1842.105469 2071.84375 1853.59375 2046.371094 1866.421875 2025.933594 C 1866.429688 2025.925781 1866.429688 2025.910156 1866.4375 2025.902344 C 1889.855469 1988.375 1915.90625 1968.949219 1931.015625 1968.949219 C 1934.6875 1968.949219 2401.125 2174.867188 2415.511719 2181.25 C 2354.613281 2220.523438 2307.375 2332.121094 2319.148438 2398.714844 L 1840.371094 2187.695312 C 1826.871094 2181.757812 1820.996094 2146.683594 1834.53125 2098.351562 Z M 2449.46875 2265.265625 C 2423.878906 2254.003906 2393.960938 2265.625 2382.679688 2291.183594 L 2378.582031 2300.507812 C 2367.3125 2326.054688 2378.941406 2356.007812 2404.484375 2367.28125 L 2419.652344 2373.964844 C 2396.066406 2406.214844 2371.613281 2421.097656 2359.613281 2416.503906 C 2351.320312 2412.664062 2346.179688 2397.71875 2346.214844 2377.34375 C 2346.394531 2278.855469 2445.984375 2156.734375 2464.976562 2211.789062 C 2470.1875 2226.421875 2469.832031 2247.917969 2464.8125 2272.035156 Z M 2779.121094 2194.21875 C 2769.234375 2194.21875 2661.554688 2219.039062 2509.550781 2194.402344 C 2502 2193.167969 2494.691406 2194.066406 2487.894531 2193.628906 C 2483.675781 2185.613281 2475.667969 2176.910156 2467.066406 2173.019531 C 2465.117188 2172.160156 2285.003906 2092.738281 2296.167969 2097.660156 C 2253.46875 2048.554688 2228.332031 1983.558594 2228.332031 1915.257812 L 2228.332031 1866.386719 C 2266.335938 1895.378906 2336.46875 1913.089844 2383.507812 1922.234375 C 2653.96875 1974.878906 2801.042969 1898.164062 2823.074219 2009.921875 C 2826.289062 2026.273438 2830.273438 2046.628906 2849.125 2056.621094 C 2899.257812 2082.152344 2920.105469 1992.667969 2978.195312 2098.621094 C 2979.578125 2101.144531 2980.96875 2103.675781 2982.367188 2106.1875 C 2930 2162.257812 2856.492188 2194.21875 2779.121094 2194.21875 Z M 3011.878906 2100.738281 C 2990.953125 2065.945312 2966.5 2009.96875 2913.644531 2017.800781 C 2892.671875 2021.019531 2872.558594 2036.785156 2862.171875 2031.523438 C 2837.160156 2018.246094 2880.253906 1913.570312 2691.019531 1915.605469 C 2624.875 1915.605469 2539.023438 1919.0625 2419.132812 1899.753906 C 2422.804688 1882.925781 2436.28125 1863.449219 2448.546875 1852.421875 C 2473.449219 1829.464844 2502.289062 1831.199219 2529.488281 1851.835938 C 2543.335938 1862.226562 2554.652344 1875.734375 2568.003906 1892.3125 C 2575.242188 1901.277344 2589.476562 1898.277344 2592.609375 1887.347656 C 2610.398438 1825.390625 2706.292969 1792.617188 2727.308594 1791.199219 C 2753.882812 1789.605469 2782.304688 1808.375 2789.574219 1835.191406 C 2791.242188 1841.359375 2796.839844 1845.628906 2803.222656 1845.628906 C 2803.832031 1845.628906 2804.410156 1845.398438 2805.015625 1845.320312 C 2812.535156 1844.339844 2810.957031 1841.308594 2828.3125 1831.925781 C 2856.285156 1817.238281 2891.960938 1811.332031 2913.058594 1817.875 C 2921.28125 1820.457031 2929.402344 1824.828125 2936.484375 1830.457031 C 2986.703125 1870.910156 2940.304688 1921.605469 3029.152344 1936.925781 C 3042.710938 1939.261719 3052.117188 1940.78125 3063.269531 1948.746094 C 3088.40625 1966.03125 3120.257812 2018.015625 3122.113281 2060.648438 C 3125.035156 2126.890625 3055.816406 2174.300781 3011.878906 2100.738281 Z M 3011.878906 2100.738281 " fill-opacity="1" fill-rule="nonzero"/></g><g clip-path="url(#f6c0018859)"><path fill="#ffffff" d="M 441.949219 259.101562 L 1219.25 259.101562 L 1219.25 1036.398438 L 441.949219 1036.398438 Z M 441.949219 259.101562 " fill-opacity="1" fill-rule="nonzero"/></g></svg>